<svg width="339" height="230" viewBox="0 0 339 230" fill="none" xmlns="http://www.w3.org/2000/svg">
<g filter="url(#filter0_d_18040_94048)">
<rect x="266" y="154" width="60" height="60" rx="8" fill="#FEFCF5" shape-rendering="crispEdges"/>
<path d="M285.586 190.712V185.211H291.233L291.839 186.026L292.465 185.211H312.948V190.333C312.948 190.333 312.414 190.705 311.794 190.712H300.45L299.766 189.845V190.712H297.529V189.23C297.529 189.23 297.223 189.437 296.563 189.437H295.8V190.712H292.414L291.808 189.88L291.195 190.712H285.586Z" fill="#FEFCF5"/>
<path d="M279 181.063L280.273 178H282.475L283.197 179.714V178H285.933L286.362 179.24L286.777 178H299.061V178.622C299.061 178.622 299.708 178 300.767 178L304.752 178.014L305.464 179.707V178H307.754L308.384 178.973V178H310.695V183.505H308.384L307.782 182.528V183.505H304.419L304.082 182.637H303.176L302.843 183.505H300.562C299.65 183.505 299.065 182.894 299.065 182.894V183.505H295.62L294.936 182.637V183.505H282.148L281.811 182.637H280.909L280.573 183.505H279V181.063Z" fill="#FEFCF5"/>
<path d="M280.723 178.68L279.008 182.801H280.124L280.441 181.975H282.282L282.599 182.801H283.742L282.027 178.68H280.723ZM281.36 179.635L281.921 181.076H280.798L281.36 179.635Z" fill="#016FD0"/>
<path d="M283.859 182.797V178.676L285.449 178.683L286.371 181.339L287.273 178.676H288.849V182.797H287.852V179.761L286.793 182.797H285.919L284.857 179.761V182.797H283.859Z" fill="#016FD0"/>
<path d="M289.531 182.797V178.676H292.789V179.596H290.542V180.302H292.734V181.17H290.539V181.901H292.785V182.797H289.531Z" fill="#016FD0"/>
<path d="M293.359 178.68V182.801H294.357V181.336H294.775L295.973 182.801H297.192L295.878 181.283C296.416 181.237 296.974 180.759 296.974 180.018C296.974 179.15 296.314 178.683 295.579 178.683L293.359 178.68ZM294.357 179.6H295.497C295.769 179.6 295.97 179.821 295.97 180.032C295.97 180.306 295.711 180.464 295.511 180.464H294.357V179.6Z" fill="#016FD0"/>
<path d="M298.408 182.797H297.391V178.676H298.408V182.797Z" fill="#016FD0"/>
<path d="M300.821 182.797H300.599C299.534 182.797 298.891 181.933 298.891 180.756C298.891 179.551 299.531 178.68 300.872 178.68H301.974V179.656H300.834C300.29 179.656 299.902 180.095 299.902 180.766C299.902 181.564 300.344 181.898 300.977 181.898H301.239L300.821 182.797Z" fill="#016FD0"/>
<path d="M302.997 178.679L301.281 182.797H302.398L302.714 181.971H304.556L304.872 182.797H306.012L304.297 178.676L302.997 178.679ZM303.63 179.635L304.191 181.075H303.068L303.63 179.635Z" fill="#016FD0"/>
<path d="M306.125 182.797V178.676H307.395L309.015 181.265V178.676H310.012V182.797H308.783L307.122 180.141V182.797H306.125Z" fill="#016FD0"/>
<path d="M286.273 190.008V185.887H289.531V186.807H287.284V187.513H289.48V188.381H287.284V189.112H289.531V190.008H286.273Z" fill="#016FD0"/>
<path d="M302.227 190.008V185.887H305.484V186.807H303.237V187.513H305.423V188.381H303.237V189.112H305.484V190.008H302.227Z" fill="#016FD0"/>
<path d="M289.655 190.008L291.241 187.973L289.617 185.887H290.873L291.84 187.176L292.81 185.887H294.018L292.415 187.945L294.005 190.004H292.749L291.809 188.736L290.894 190.004L289.655 190.008Z" fill="#016FD0"/>
<path d="M294.125 185.891V190.011H295.15V188.712H296.201C297.09 188.712 297.764 188.223 297.764 187.278C297.764 186.495 297.236 185.894 296.331 185.894H294.125V185.891ZM295.15 186.822H296.256C296.542 186.822 296.749 187.004 296.749 187.296C296.749 187.57 296.545 187.77 296.252 187.77H295.15V186.822Z" fill="#016FD0"/>
<path d="M298.195 185.887V190.008H299.193V188.543H299.611L300.809 190.008H302.028L300.714 188.49C301.252 188.444 301.81 187.966 301.81 187.225C301.81 186.357 301.15 185.89 300.415 185.89L298.195 185.887ZM299.196 186.811H300.336C300.609 186.811 300.809 187.032 300.809 187.243C300.809 187.517 300.551 187.675 300.35 187.675H299.196V186.811Z" fill="#016FD0"/>
<path d="M305.946 190.008V189.112H307.944C308.24 189.112 308.366 188.947 308.366 188.768C308.366 188.596 308.24 188.42 307.944 188.42H307.042C306.259 188.42 305.82 187.928 305.82 187.187C305.82 186.526 306.222 185.891 307.386 185.891H309.33L308.911 186.818H307.229C306.909 186.818 306.811 186.994 306.811 187.159C306.811 187.331 306.933 187.517 307.178 187.517H308.125C308.999 187.517 309.377 188.03 309.377 188.701C309.377 189.421 308.955 190.011 308.077 190.011H305.946V190.008Z" fill="#016FD0"/>
<path d="M309.61 190.008V189.112H311.608C311.904 189.112 312.03 188.947 312.03 188.768C312.03 188.596 311.904 188.42 311.608 188.42H310.706C309.923 188.42 309.484 187.928 309.484 187.187C309.484 186.526 309.886 185.891 311.05 185.891H312.994L312.575 186.818H310.894C310.574 186.818 310.475 186.994 310.475 187.159C310.475 187.331 310.597 187.517 310.842 187.517H311.789C312.663 187.517 313.041 188.03 313.041 188.701C313.041 189.421 312.619 190.011 311.741 190.011H309.61V190.008Z" fill="#016FD0"/>
</g>
<defs>
<filter id="filter0_d_18040_94048" x="-202" y="0" width="541" height="230" filterUnits="userSpaceOnUse" color-interpolation-filters="sRGB">
<feFlood flood-opacity="0" result="BackgroundImageFix"/>
<feColorMatrix in="SourceAlpha" type="matrix" values="0 0 0 0 0 0 0 0 0 0 0 0 0 0 0 0 0 0 127 0" result="hardAlpha"/>
<feOffset dx="-3"/>
<feGaussianBlur stdDeviation="8"/>
<feComposite in2="hardAlpha" operator="out"/>
<feColorMatrix type="matrix" values="0 0 0 0 0 0 0 0 0 0 0 0 0 0 0 0 0 0 0.1 0"/>
<feBlend mode="normal" in2="BackgroundImageFix" result="effect1_dropShadow_18040_94048"/>
<feBlend mode="normal" in="SourceGraphic" in2="effect1_dropShadow_18040_94048" result="shape"/>
</filter>
</defs>
</svg>
