<svg width="92" height="92" viewBox="0 0 92 92" fill="none" xmlns="http://www.w3.org/2000/svg">
<g filter="url(#filter0_d_18040_94068)">
<rect x="19" y="16" width="60" height="60" rx="8" fill="#FEFCF5" shape-rendering="crispEdges"/>
<path d="M65.472 43.859L56.75 42.4805L57.9062 47.7226L65.472 43.859Z" fill="#D12053"/>
<path d="M65.4703 43.8587L58.898 34.6484L56.75 42.4818L65.4703 43.8587Z" fill="#E2136E"/>
<path d="M56.5427 42.3768L49.6562 33.5L58.6743 34.5866L56.5427 42.3768Z" fill="#D12053"/>
<path d="M53.4021 38.6659L49.5781 35.0312H50.5847L53.4021 38.6659Z" fill="#9E1638"/>
<path d="M67.3277 39.3828L65.7093 43.8104L63.0859 40.1509L67.3277 39.3828Z" fill="#D12053"/>
<path d="M58.9141 47.4572L65.2643 44.8842L65.5308 44.0664L58.9141 47.4572Z" fill="#E2136E"/>
<path d="M53.8359 52.3125L56.5563 42.6875L57.9362 48.9499L53.8359 52.3125Z" fill="#9E1638"/>
<path d="M67.5818 39.418L66.9141 41.2461L69.3219 41.2063L67.5818 39.418Z" fill="#E2136E"/>
<path d="M28.6797 40.1484C28.7965 40.1584 28.9149 40.18 29.0399 40.18C29.1649 40.18 29.2669 40.1584 29.4001 40.1484V44.0419C29.78 43.3899 30.2586 42.9603 30.9626 42.9603C32.2356 42.9603 32.7816 44.231 32.7816 45.3989C32.7816 46.7973 32.0415 48.1361 30.7438 48.1361C30.484 48.1418 30.2276 48.0758 30.0023 47.945C29.7771 47.8143 29.5915 47.624 29.4659 47.3945C29.2488 47.587 29.0563 47.8176 28.8507 48.0266H28.6863L28.6797 40.1484ZM29.3836 45.875C29.3836 47.0097 29.8606 47.801 30.6451 47.801C31.6632 47.801 31.9905 46.4208 31.9905 45.442C31.9905 44.3057 31.6188 43.4115 30.7372 43.4015C29.7076 43.3933 29.3836 44.6225 29.3836 45.8766" fill="#E2136E"/>
<path d="M36.1003 42.67L35.3339 43.6653C36.0543 44.727 36.801 45.7671 37.5246 46.8421L38.2549 48.0033V48.0614C38.0756 48.0498 37.9128 48.0266 37.7615 48.0266C37.6102 48.0266 37.4194 48.0498 37.2582 48.0614C37.0592 47.6898 36.8618 47.3464 36.6365 47.0097L34.6628 44.0651C34.6184 44.0187 34.5115 43.9822 34.5115 44.0303V48.0614C34.3668 48.0498 34.2401 48.0266 34.1151 48.0266C33.9901 48.0266 33.8454 48.0498 33.7188 48.0614V40.1518C33.8454 40.1617 33.9819 40.1866 34.1151 40.1866C34.2484 40.1866 34.3668 40.1617 34.5115 40.1518V43.7217C34.5115 43.7914 34.6464 43.7449 34.7352 43.652C34.9065 43.4729 35.0669 43.2834 35.2154 43.0847L37.4342 40.1484C37.551 40.1584 37.6677 40.1833 37.7944 40.1833C37.921 40.1833 38.0181 40.1584 38.1464 40.1484L36.1003 42.67Z" fill="#231F20"/>
<path d="M42.0748 47.1679C42.0748 47.5793 42.0485 47.7883 42.5797 47.6523V47.8829C42.493 47.9268 42.402 47.9618 42.3084 47.9874C41.8396 48.082 41.4515 47.9974 41.3791 47.3786L41.2985 47.4698C41.1418 47.6769 40.9397 47.8446 40.708 47.9597C40.4763 48.0749 40.2213 48.1343 39.963 48.1334C39.3248 48.1334 38.7656 47.6258 38.7656 46.8477C38.7656 45.6484 39.588 45.4908 40.4317 45.3332C41.1455 45.1971 41.389 45.1341 41.389 44.6281C41.389 43.8485 41.0107 43.3972 40.3347 43.3972C40.1038 43.3927 39.8772 43.4598 39.6854 43.5894C39.4936 43.7191 39.3459 43.9051 39.2623 44.1222H39.1636V43.5382C39.5695 43.1821 40.0848 42.9782 40.6225 42.9609C41.5682 42.9609 42.083 43.5382 42.083 44.7277L42.0748 47.1679ZM41.3544 45.431L41.037 45.504C40.4235 45.6401 39.5041 45.7446 39.5041 46.7051C39.5041 47.3686 39.8331 47.7004 40.3857 47.7004C40.6715 47.6649 40.933 47.52 41.1159 47.2957C41.1817 47.2193 41.3626 47.0402 41.3626 46.9639L41.3544 45.431Z" fill="#231F20"/>
<path d="M43.6834 47.0313C43.8972 47.4444 44.2952 47.8143 44.7196 47.8143C44.9617 47.8018 45.1895 47.6948 45.3547 47.5158C45.5199 47.3368 45.6094 47.0999 45.6044 46.8554C45.6044 45.4354 43.4745 46.3578 43.4745 44.5197C43.4745 43.5111 44.1324 42.9653 44.9432 42.9653C45.3018 42.9573 45.6553 43.0516 45.963 43.2374C45.8742 43.4808 45.8027 43.7302 45.7492 43.9839H45.6669C45.5485 43.6372 45.2344 43.2888 44.9005 43.2888C44.4498 43.2888 44.0781 43.5957 44.0781 44.1647C44.0781 45.5101 46.208 44.7934 46.208 46.4772C46.208 47.6036 45.3429 48.1361 44.5469 48.1361C44.1482 48.1358 43.7579 48.0207 43.4219 47.8043C43.5026 47.552 43.5658 47.2942 43.611 47.033L43.6834 47.0313Z" fill="#231F20"/>
<path d="M47.4219 40.1484C47.5419 40.1584 47.6587 40.18 47.7837 40.18C47.9087 40.18 48.0107 40.1584 48.1456 40.1484V43.9788C48.4613 43.3369 48.9564 42.9603 49.5978 42.9603C50.6439 42.9603 51.0501 43.6836 51.0501 45.0107V48.0581C50.9136 48.0465 50.8084 48.0266 50.6883 48.0266C50.5682 48.0266 50.4449 48.0481 50.3265 48.0581V45.2512C50.3265 44.09 50.0946 43.5044 49.3265 43.5044C48.514 43.5044 48.1456 44.095 48.1456 45.1882V48.0581C48.0107 48.0465 47.9038 48.0266 47.7837 48.0266C47.6636 48.0266 47.5436 48.0481 47.4219 48.0581V40.1484Z" fill="#231F20"/>
<path d="M29.9922 58.5408L29.961 58.277H29.9478C29.8741 58.3756 29.7783 58.4551 29.6682 58.509C29.5582 58.563 29.4369 58.5898 29.3146 58.5872C29.233 58.5934 29.151 58.5825 29.0738 58.555C28.9966 58.5276 28.9259 58.4842 28.8662 58.4278C28.8065 58.3713 28.7591 58.3029 28.727 58.227C28.6949 58.1511 28.6788 58.0692 28.6797 57.9867C28.6797 57.489 29.1254 57.2053 29.9264 57.2087V57.1655C29.9345 57.1011 29.928 57.0357 29.9074 56.9742C29.8869 56.9127 29.8527 56.8567 29.8076 56.8104C29.7625 56.7641 29.7076 56.7287 29.647 56.7069C29.5864 56.6851 29.5217 56.6774 29.4577 56.6844C29.267 56.6852 29.0803 56.7392 28.9182 56.8404L28.8327 56.5882C29.0382 56.4639 29.274 56.3996 29.5136 56.4024C30.1485 56.4024 30.3031 56.8387 30.3031 57.2568V58.0398C30.3003 58.2064 30.3119 58.3729 30.3376 58.5374L29.9922 58.5408ZM29.9297 57.4741C29.5185 57.4658 29.0514 57.5388 29.0514 57.9452C29.0467 57.9937 29.0525 58.0426 29.0686 58.0885C29.0847 58.1345 29.1107 58.1762 29.1446 58.2109C29.1785 58.2456 29.2195 58.2723 29.2648 58.2892C29.3102 58.306 29.3586 58.3126 29.4067 58.3085C29.5149 58.3097 29.6208 58.2765 29.7093 58.2137C29.7979 58.1509 29.8646 58.0616 29.9001 57.9585C29.9133 57.9194 29.9205 57.8786 29.9215 57.8374L29.9297 57.4741Z" fill="#808285"/>
<path d="M31.8331 55.6692C32.0577 55.6277 32.2856 55.6077 32.514 55.6095C32.8857 55.6095 33.1275 55.6742 33.3067 55.8218C33.3851 55.8815 33.4479 55.9595 33.4898 56.049C33.5316 56.1386 33.5512 56.2372 33.5469 56.3361C33.5419 56.4816 33.4915 56.6219 33.4029 56.7368C33.3144 56.8518 33.192 56.9357 33.0534 56.9764V56.9847C33.2205 57.0193 33.3708 57.1106 33.4792 57.2434C33.5875 57.3763 33.6474 57.5426 33.6488 57.7146C33.6507 57.8237 33.6301 57.9319 33.5881 58.0325C33.5462 58.133 33.484 58.2236 33.4054 58.2986C33.2031 58.4844 32.8775 58.5706 32.4071 58.5706C32.2135 58.5721 32.0201 58.5605 31.8281 58.5358L31.8331 55.6692ZM32.2064 56.862H32.5436C32.9383 56.862 33.1702 56.6546 33.1702 56.3742C33.1702 56.0325 32.9136 55.8981 32.5354 55.8981C32.4251 55.8952 32.3148 55.9041 32.2064 55.9247V56.862ZM32.2064 58.2588C32.31 58.2723 32.4145 58.2779 32.5189 58.2753C32.9038 58.2753 33.2607 58.1327 33.2607 57.7097C33.2607 57.3115 32.9219 57.1473 32.514 57.1473H32.2064V58.2588Z" fill="#808285"/>
<path d="M34.1562 55.6708C34.3913 55.6284 34.6297 55.6079 34.8684 55.6095C35.2664 55.6095 35.5263 55.6825 35.7039 55.8483C35.7786 55.9188 35.8375 56.0045 35.8767 56.0998C35.9158 56.1951 35.9343 56.2977 35.9309 56.4008C35.933 56.5676 35.8809 56.7305 35.7826 56.8647C35.6843 56.9988 35.5452 57.0969 35.3865 57.1439V57.1572C35.6085 57.2352 35.7418 57.4425 35.8092 57.7461C35.8598 58.0189 35.9346 58.2865 36.0329 58.5457H35.6513C35.5654 58.3202 35.5009 58.0869 35.4589 57.849C35.3733 57.4475 35.2187 57.2966 34.8816 57.2833H34.528V58.5457H34.1562V55.6708ZM34.528 56.998H34.9095C35.3076 56.998 35.5674 56.7773 35.5674 56.4455C35.5674 56.069 35.2977 55.9047 34.9095 55.8998C34.7858 55.8962 34.662 55.9079 34.5411 55.9346L34.528 56.998Z" fill="#808285"/>
<path d="M36.9437 57.6262L36.6443 58.5419H36.2578L37.2446 55.6289H37.6937L38.6805 58.5419H38.2775L37.9683 57.6262H36.9437ZM37.891 57.3326L37.6081 56.4932C37.5423 56.3041 37.5012 56.1316 37.4585 55.9623H37.4502C37.4075 56.1282 37.3598 56.3124 37.3039 56.4899L37.021 57.3326H37.891Z" fill="#808285"/>
<path d="M41.0563 58.4483C40.8143 58.5477 40.5543 58.5946 40.2932 58.586C39.4708 58.586 38.8672 58.0684 38.8672 57.1129C38.8672 56.2005 39.479 55.5834 40.3754 55.5834C40.6102 55.5736 40.8442 55.6178 41.0596 55.7128L40.9708 56.023C40.7878 55.9401 40.5891 55.8988 40.3886 55.9019C39.7109 55.9019 39.2619 56.3382 39.2619 57.1029C39.2619 57.8162 39.6682 58.2741 40.3721 58.2741C40.5806 58.2773 40.7874 58.236 40.979 58.153L41.0563 58.4483Z" fill="#808285"/>
<path d="M42.4268 55.6692C42.6514 55.6277 42.8794 55.6077 43.1077 55.6095C43.4794 55.6095 43.7212 55.6742 43.9005 55.8218C43.9789 55.8815 44.0417 55.9595 44.0835 56.049C44.1253 56.1386 44.1449 56.2372 44.1406 56.3361C44.1357 56.4816 44.0853 56.6219 43.9967 56.7368C43.9081 56.8518 43.7858 56.9357 43.6472 56.9764V56.9847C43.8143 57.0193 43.9645 57.1106 44.0729 57.2434C44.1813 57.3763 44.2412 57.5426 44.2426 57.7146C44.2445 57.8237 44.2238 57.9319 44.1819 58.0325C44.14 58.133 44.0777 58.2236 43.9992 58.2986C43.7969 58.4844 43.4712 58.5706 43.0008 58.5706C42.8073 58.5721 42.6139 58.5605 42.4219 58.5358L42.4268 55.6692ZM42.8002 56.862H43.1373C43.5321 56.862 43.764 56.6546 43.764 56.3742C43.764 56.0325 43.5074 55.8981 43.1291 55.8981C43.0188 55.8952 42.9086 55.9041 42.8002 55.9247V56.862ZM42.8002 58.2588C42.9038 58.2723 43.0082 58.2779 43.1127 58.2753C43.4975 58.2753 43.8544 58.1327 43.8544 57.7097C43.8544 57.3115 43.5156 57.1473 43.1077 57.1473H42.7969L42.8002 58.2588Z" fill="#808285"/>
<path d="M45.8812 58.5441L45.8516 58.2803H45.8384C45.7645 58.379 45.6684 58.4586 45.558 58.5126C45.4477 58.5665 45.3262 58.5932 45.2036 58.5905C45.1221 58.5965 45.0403 58.5854 44.9633 58.5578C44.8863 58.5302 44.8158 58.4869 44.7563 58.4304C44.6968 58.374 44.6495 58.3057 44.6175 58.2299C44.5855 58.1541 44.5695 58.0724 44.5703 57.99C44.5703 57.4923 45.0161 57.2087 45.817 57.212V57.1689C45.8254 57.1041 45.8191 57.0383 45.7985 56.9764C45.778 56.9145 45.7438 56.8581 45.6985 56.8114C45.6532 56.7648 45.598 56.7291 45.5371 56.7071C45.4761 56.6851 45.411 56.6774 45.3467 56.6845C45.1555 56.6851 44.9682 56.7391 44.8055 56.8404L44.72 56.5882C44.9255 56.4638 45.1613 56.3994 45.4009 56.4024C46.0358 56.4024 46.1904 56.8387 46.1904 57.2568V58.0398C46.1876 58.2064 46.1992 58.3729 46.2249 58.5375L45.8812 58.5441ZM45.8253 57.4758C45.4141 57.4675 44.947 57.5405 44.947 57.9469C44.9422 57.9954 44.9481 58.0443 44.9642 58.0902C44.9803 58.1361 45.0062 58.1779 45.0401 58.2126C45.074 58.2473 45.1151 58.274 45.1604 58.2908C45.2057 58.3077 45.2541 58.3143 45.3023 58.3102C45.4105 58.3116 45.5165 58.2785 45.6051 58.2157C45.6937 58.1529 45.7604 58.0634 45.7957 57.9602C45.8092 57.9212 45.8164 57.8803 45.817 57.8391L45.8253 57.4758Z" fill="#808285"/>
<path d="M46.8055 57.0164C46.8055 56.8007 46.8055 56.6232 46.7891 56.4507H47.118L47.1394 56.7958C47.2074 56.6734 47.3072 56.5722 47.428 56.5029C47.5489 56.4336 47.6863 56.3989 47.8252 56.4026C48.1131 56.4026 48.5571 56.5685 48.5571 57.2934V58.5426H48.1904V57.3366C48.1904 57.0048 48.067 56.7178 47.7101 56.7178C47.5957 56.7197 47.4849 56.7584 47.3938 56.8282C47.3027 56.8981 47.2361 56.9953 47.2035 57.106C47.1862 57.1635 47.1779 57.2234 47.1789 57.2835V58.5409H46.8022L46.8055 57.0164Z" fill="#808285"/>
<path d="M49.5485 57.4125H49.5584C49.6094 57.3395 49.6817 57.2466 49.7426 57.1753L50.3511 56.4537H50.8051L50.0041 57.3146L50.9153 58.5455H50.4581L49.7426 57.5502L49.5502 57.7659V58.5522H49.1719V55.4766H49.5436L49.5485 57.4125Z" fill="#808285"/>
<path d="M54.4794 58.4668C54.2922 58.5507 54.0889 58.592 53.8841 58.5879C53.2591 58.5879 52.8528 58.1599 52.8528 57.5196C52.8456 57.3707 52.8696 57.222 52.9232 57.0831C52.9767 56.9441 53.0587 56.8182 53.1637 56.7133C53.2688 56.6085 53.3945 56.5271 53.5328 56.4745C53.6711 56.4219 53.8188 56.3993 53.9663 56.4081C54.1463 56.4059 54.3246 56.4427 54.4893 56.5159L54.4038 56.8112C54.2691 56.7399 54.1183 56.7056 53.9663 56.7117C53.491 56.7117 53.2344 57.0667 53.2344 57.503C53.2344 57.9874 53.5436 58.2843 53.9548 58.2843C54.1146 58.2847 54.2725 58.249 54.4169 58.1798L54.4794 58.4668Z" fill="#808285"/>
<path d="M56.7697 57.4773C56.7697 58.2504 56.2385 58.5888 55.7368 58.5888C55.176 58.5888 54.75 58.1741 54.75 57.5121C54.75 56.8121 55.2039 56.4023 55.778 56.4023C56.352 56.4023 56.7697 56.8386 56.7697 57.4773ZM55.125 57.4989C55.125 57.9567 55.3865 58.3018 55.7549 58.3018C56.1233 58.3018 56.3849 57.9601 56.3849 57.4889C56.3849 57.1339 56.2089 56.686 55.7632 56.686C55.3174 56.686 55.1234 57.1024 55.1234 57.5005L55.125 57.4989Z" fill="#808285"/>
<path d="M57.2508 57.0177C57.2508 56.802 57.2508 56.6245 57.2344 56.452H57.5633L57.5814 56.7838H57.5946C57.6571 56.6636 57.7521 56.5637 57.8685 56.4956C57.9849 56.4275 58.118 56.394 58.2525 56.3989C58.3816 56.3978 58.5079 56.4378 58.6132 56.5131C58.7186 56.5884 58.7978 56.6953 58.8396 56.8186C58.8977 56.7129 58.9766 56.6203 59.0715 56.5466C59.2029 56.4453 59.3652 56.3936 59.5304 56.4006C59.8034 56.4006 60.2113 56.5814 60.2113 57.308V58.5389H59.8429V57.3544C59.8429 56.9513 59.6965 56.7091 59.3939 56.7091C59.2936 56.7141 59.1972 56.7498 59.1176 56.8114C59.0379 56.8731 58.9788 56.9578 58.9482 57.0542C58.9291 57.116 58.9192 57.1802 58.9186 57.245V58.5372H58.5502V57.2848C58.5502 56.953 58.4038 56.7091 58.1176 56.7091C58.01 56.7156 57.9071 56.7559 57.8233 56.8243C57.7396 56.8927 57.6791 56.9859 57.6505 57.0907C57.6298 57.1504 57.6198 57.2133 57.6209 57.2765V58.5389H57.2508V57.0177Z" fill="#808285"/>
<path d="M60.8211 57.1328C60.8211 56.864 60.8129 56.6484 60.8047 56.451H61.1435L61.1599 56.8093H61.1682C61.2435 56.681 61.3516 56.5756 61.4813 56.5041C61.6109 56.4325 61.7573 56.3976 61.905 56.4029C62.4067 56.4029 62.7833 56.8309 62.7833 57.4662C62.7833 58.2194 62.3293 58.5893 61.8409 58.5893C61.7151 58.5946 61.5901 58.5668 61.4782 58.5086C61.3663 58.4505 61.2714 58.3639 61.2027 58.2575H61.1928V59.3939H60.8211V57.1328ZM61.1928 57.6902C61.194 57.7425 61.1995 57.7947 61.2093 57.8461C61.2408 57.9734 61.3136 58.0865 61.4161 58.1674C61.5186 58.2482 61.645 58.2922 61.7751 58.2924C62.1731 58.2924 62.405 57.9606 62.405 57.4845C62.405 57.0648 62.1863 56.7064 61.7866 56.7064C61.6295 56.7213 61.4829 56.7927 61.3736 56.9075C61.2643 57.0223 61.1996 57.1729 61.1912 57.3318L61.1928 57.6902Z" fill="#808285"/>
<path d="M64.4046 58.5441L64.3734 58.2803H64.3619C64.2882 58.3789 64.1924 58.4584 64.0823 58.5124C63.9722 58.5663 63.851 58.5931 63.7287 58.5906C63.647 58.5968 63.565 58.5858 63.4879 58.5583C63.4107 58.5309 63.34 58.4876 63.2803 58.4311C63.2206 58.3746 63.1732 58.3063 63.1411 58.2303C63.109 58.1544 63.0929 58.0726 63.0938 57.99C63.0938 57.4924 63.5395 57.2087 64.3405 57.212V57.1689C64.3489 57.104 64.3425 57.038 64.3219 56.976C64.3013 56.9139 64.2669 56.8574 64.2214 56.8107C64.1759 56.764 64.1205 56.7284 64.0594 56.7065C63.9982 56.6847 63.9329 56.6771 63.8685 56.6845C63.6778 56.6852 63.4911 56.7391 63.329 56.8404L63.2435 56.5883C63.4489 56.4636 63.6847 56.3993 63.9244 56.4025C64.5576 56.4025 64.7122 56.8387 64.7122 57.2568V58.0398C64.7098 58.2064 64.7214 58.3728 64.7467 58.5375L64.4046 58.5441ZM64.3487 57.4758C63.9375 57.4675 63.4688 57.5405 63.4688 57.9469C63.464 57.9955 63.4699 58.0446 63.4861 58.0907C63.5023 58.1367 63.5284 58.1786 63.5624 58.2133C63.5965 58.248 63.6378 58.2747 63.6833 58.2914C63.7288 58.3082 63.7774 58.3146 63.8257 58.3102C63.9339 58.3114 64.0398 58.2782 64.1283 58.2154C64.2169 58.1526 64.2836 58.0633 64.3191 57.9602C64.3322 57.9211 64.3394 57.8803 64.3405 57.8391L64.3487 57.4758Z" fill="#808285"/>
<path d="M65.3211 57.0164C65.3211 56.8007 65.3211 56.6232 65.3047 56.4507H65.6336L65.655 56.7958C65.723 56.6734 65.8228 56.5722 65.9437 56.5029C66.0645 56.4336 66.2019 56.3989 66.3409 56.4026C66.627 56.4026 67.0728 56.5685 67.0728 57.2934V58.5426H66.6961V57.3366C66.6961 57.0048 66.5711 56.7178 66.2159 56.7178C66.1017 56.7198 65.9911 56.7586 65.9003 56.8284C65.8095 56.8982 65.7431 56.9955 65.7109 57.106C65.6932 57.1634 65.6849 57.2234 65.6863 57.2835V58.5409H65.308L65.3211 57.0164Z" fill="#808285"/>
<path d="M67.78 56.4531L68.234 57.689C68.2817 57.8267 68.3326 57.9909 68.3672 58.117H68.377C68.4149 57.9909 68.4576 57.8317 68.5086 57.6807L68.9198 56.4531H69.3178L68.752 57.9461C68.4823 58.6628 68.2981 59.0311 68.0415 59.255C67.9109 59.3755 67.7518 59.4601 67.5794 59.5005L67.4856 59.1804C67.606 59.1401 67.7176 59.077 67.8146 58.9946C67.9513 58.8802 68.06 58.7354 68.132 58.5715C68.1466 58.5429 68.1566 58.5121 68.1616 58.4803C68.1576 58.446 68.1488 58.4125 68.1353 58.3808L67.3672 56.4531H67.78Z" fill="#808285"/>
</g>
<defs>
<filter id="filter0_d_18040_94068" x="0" y="0" width="92" height="92" filterUnits="userSpaceOnUse" color-interpolation-filters="sRGB">
<feFlood flood-opacity="0" result="BackgroundImageFix"/>
<feColorMatrix in="SourceAlpha" type="matrix" values="0 0 0 0 0 0 0 0 0 0 0 0 0 0 0 0 0 0 127 0" result="hardAlpha"/>
<feOffset dx="-3"/>
<feGaussianBlur stdDeviation="8"/>
<feComposite in2="hardAlpha" operator="out"/>
<feColorMatrix type="matrix" values="0 0 0 0 0 0 0 0 0 0 0 0 0 0 0 0 0 0 0.1 0"/>
<feBlend mode="normal" in2="BackgroundImageFix" result="effect1_dropShadow_18040_94068"/>
<feBlend mode="normal" in="SourceGraphic" in2="effect1_dropShadow_18040_94068" result="shape"/>
</filter>
</defs>
</svg>
