<svg width="24" height="24" viewBox="0 0 24 24" fill="none" xmlns="http://www.w3.org/2000/svg">
<g clip-path="url(#clip0_18040_93392)">
<path fill-rule="evenodd" clip-rule="evenodd" d="M1.67637 0.508615C1.44674 0.564391 1.03547 0.805351 0.90472 0.960775C0.83944 1.03834 0.72784 1.2121 0.656704 1.34698L0.527344 1.59212V6.99212V12.3921L0.69136 12.6946C0.87352 13.0305 1.02299 13.1752 1.38621 13.3668L1.63134 13.4961L3.94734 13.5103L6.26334 13.5244V13.1396V12.7549L4.01555 12.7415L1.76776 12.7281L1.58646 12.5898C1.24979 12.3329 1.2687 12.6861 1.28272 6.92367C1.29525 1.75182 1.29597 1.71831 1.39432 1.5866C1.44875 1.51369 1.55291 1.40953 1.62582 1.35509C1.75754 1.25674 1.79104 1.25602 6.9629 1.24349C12.7254 1.22948 12.3722 1.21057 12.629 1.54729L12.7673 1.72858L12.7803 5.12837L12.7932 8.52812H13.1778H13.5624L13.5488 5.06012L13.5353 1.59212L13.3713 1.28967C13.1892 0.953719 13.0397 0.809047 12.6765 0.617479L12.4313 0.488119L7.12734 0.480535C4.21014 0.476359 1.7572 0.488983 1.67637 0.508615ZM2.92773 2.11537L2.80734 2.23575V6.99212V11.7485L2.92518 11.8663L3.04298 11.9841H4.34334H5.64371L5.7615 11.8663L5.87934 11.7485V10.3349V8.92134L7.16334 8.90146C8.38326 8.8826 8.46573 8.87549 8.81536 8.75924C9.38848 8.56863 9.79528 8.31663 10.2276 7.88434C10.6601 7.45181 10.9122 7.04468 11.1021 6.47214C11.2087 6.15087 11.2242 6.02175 11.2242 5.45612C11.2242 4.89049 11.2087 4.76137 11.1021 4.4401C10.9122 3.86756 10.6601 3.46042 10.2276 3.02789C9.7973 2.59762 9.39342 2.34668 8.81536 2.15045L8.44734 2.02556L5.74773 2.01025L3.04811 1.99498L2.92773 2.11537ZM8.30651 2.81943C8.77619 2.90401 9.33194 3.20204 9.69266 3.56281C10.7406 4.61074 10.7419 6.28633 9.69539 7.34314C9.33126 7.71082 8.78248 8.00708 8.30651 8.09281C8.14907 8.12117 7.4237 8.14412 6.68435 8.14412H5.34698L5.22918 8.26196L5.11134 8.37975V9.79796V11.2161H4.34334H3.57534V6.99212V2.76812H5.79851C7.16646 2.76812 8.13126 2.78785 8.30651 2.81943ZM5.22918 4.42196C5.1123 4.53879 5.11134 4.54719 5.11134 5.45612C5.11134 6.36505 5.1123 6.37345 5.22918 6.49028L5.34698 6.60812H6.65162C7.53558 6.60812 8.0199 6.5893 8.15378 6.54975C8.56629 6.42788 8.95134 5.89988 8.95134 5.45612C8.95134 5.01236 8.56629 4.48436 8.15378 4.36249C8.0199 4.32294 7.53558 4.30412 6.65162 4.30412H5.34698L5.22918 4.42196ZM8.0655 5.18996C8.13981 5.26421 8.18334 5.36262 8.18334 5.45612C8.18334 5.54962 8.13981 5.64802 8.0655 5.72228C7.94771 5.84012 7.94757 5.84012 6.9135 5.84012H5.87934V5.45612V5.07212H6.9135C7.94757 5.07212 7.94771 5.07212 8.0655 5.18996ZM9.35934 9.36279C9.25374 9.39644 9.10144 9.45836 9.02085 9.50036C8.86038 9.58402 8.51757 9.93601 8.42123 10.1161C8.38773 10.1786 8.00046 11.3092 7.56064 12.6285L6.76091 15.0271L6.45213 15.1041C6.2823 15.1465 6.07082 15.2196 5.98216 15.2665C5.72709 15.4017 5.40299 15.7572 5.2635 16.0547L5.13534 16.3281V18.2001V20.0721L5.2647 20.3173C5.45627 20.6805 5.60094 20.8299 5.9369 21.0121L6.23934 21.1761L7.78734 21.1911L9.33534 21.2061V21.9711V22.7361H8.18334H7.03134V22.3521V21.9681H6.64734H6.26334V22.4257C6.26334 22.9674 6.32584 23.1491 6.57851 23.3418L6.75986 23.4801H8.1881C9.55571 23.4801 9.62195 23.4759 9.74886 23.3811C10.0669 23.1437 10.078 23.1029 10.0943 22.1088L10.1092 21.2001H14.3303H18.5513V22.0417C18.5513 22.9982 18.5821 23.1248 18.8665 23.3418L19.0479 23.4801H20.4761C21.8437 23.4801 21.91 23.4759 22.0369 23.3811C22.3555 23.1432 22.366 23.1044 22.3821 22.0958L22.3968 21.1743L22.7063 21.0139C23.0471 20.8371 23.1954 20.686 23.39 20.3173L23.5193 20.0721V18.2001V16.3281L23.3912 16.0547C23.2517 15.7572 22.9276 15.4017 22.6725 15.2665C22.5839 15.2196 22.3724 15.1465 22.2026 15.1041L21.8938 15.0271L21.0904 12.6175C20.6486 11.2922 20.2434 10.1378 20.1902 10.052C20.0375 9.80617 19.7485 9.55057 19.4873 9.43047L19.2473 9.32012L14.3993 9.31085C10.5827 9.30361 9.5105 9.31465 9.35934 9.36279ZM19.2241 10.1721C19.438 10.2805 19.5726 10.4543 19.6332 10.7001L19.6658 10.8321H14.3273H8.98893L9.02147 10.7001C9.0785 10.4688 9.2152 10.2833 9.41003 10.1729L9.59934 10.0657L14.3052 10.0649L19.011 10.0641L19.2241 10.1721ZM20.5114 13.3281L21.0877 15.0561H14.3273H7.56702L8.14326 13.3281L8.7195 11.6001H14.3273H19.9352L20.5114 13.3281ZM22.2253 15.9144C22.4602 16.0211 22.6586 16.2463 22.7289 16.4863C22.7634 16.6037 22.7761 17.2215 22.7662 18.3047C22.752 19.8745 22.7471 19.951 22.6524 20.0777C22.5979 20.1506 22.4938 20.2547 22.4209 20.3091L22.2883 20.4081H14.3321H6.37586L6.19451 20.2698C5.88482 20.0336 5.87934 19.9978 5.87934 18.2001C5.87934 16.8545 5.89158 16.5597 5.95365 16.4113C6.05272 16.174 6.19898 16.0221 6.43134 15.9148C6.61547 15.8299 6.93875 15.8262 14.3273 15.8262C21.6991 15.8262 22.0397 15.83 22.2253 15.9144ZM7.70358 16.669C7.02198 16.9175 6.60266 17.5475 6.65877 18.2387C6.78261 19.7641 8.78517 20.1902 9.52341 18.8481C9.68301 18.558 9.69491 18.5075 9.69323 18.1281C9.69174 17.7823 9.67202 17.6828 9.56406 17.475C9.37677 17.1146 9.23037 16.9623 8.90387 16.7883C8.5384 16.5935 8.04525 16.5445 7.70358 16.669ZM19.9916 16.669C19.31 16.9175 18.8907 17.5475 18.9468 18.2387C19.0706 19.7641 21.0732 20.1902 21.8114 18.8481C21.971 18.558 21.9829 18.5075 21.9812 18.1281C21.9797 17.7823 21.96 17.6828 21.8521 17.475C21.6648 17.1146 21.5184 16.9623 21.1919 16.7883C20.8264 16.5935 20.3332 16.5445 19.9916 16.669ZM10.4873 17.3601V17.7441H14.3273H18.1673V17.3601V16.9761H14.3273H10.4873V17.3601ZM8.48714 17.4256C8.98029 17.6317 9.10053 18.2782 8.71701 18.6618C8.40563 18.9731 7.96106 18.9731 7.64968 18.6618C7.05611 18.0682 7.71107 17.1014 8.48714 17.4256ZM20.7751 17.4256C21.2683 17.6317 21.3885 18.2782 21.005 18.6618C20.4657 19.2011 19.582 18.718 19.7239 17.9615C19.8087 17.5096 20.3346 17.2415 20.7751 17.4256ZM10.4873 18.8961V19.2801H14.3273H18.1673V18.8961V18.5121H14.3273H10.4873V18.8961ZM21.6233 21.9681V22.7361H20.4713H19.3193V21.9681V21.2001H20.4713H21.6233V21.9681Z" fill="#2A220E"/>
</g>
<defs>
<clipPath id="clip0_18040_93392">
<rect width="24" height="24" fill="white"/>
</clipPath>
</defs>
</svg>
