<svg width="24" height="24" viewBox="0 0 24 24" fill="none" xmlns="http://www.w3.org/2000/svg">
<g clip-path="url(#clip0_18040_93514)">
<path d="M19.3322 14.6676C18.5761 14.6682 17.8315 14.8528 17.1627 15.2054C16.4939 15.558 15.9209 16.0681 15.4932 16.6916L8.9842 13.7526C9.44651 12.6362 9.44831 11.3822 8.9892 10.2646L15.4892 7.31055C16.1231 8.22731 17.0645 8.88652 18.1428 9.1686C19.2211 9.45068 20.3647 9.33696 21.3663 8.84805C22.3679 8.35915 23.1611 7.52745 23.602 6.50382C24.043 5.48019 24.1024 4.33242 23.7696 3.26873C23.4367 2.20503 22.7337 1.29585 21.7879 0.706108C20.8422 0.116367 19.7164 -0.114875 18.6147 0.0543287C17.5131 0.223532 16.5086 0.781974 15.7834 1.62836C15.0583 2.47474 14.6605 3.553 14.6622 4.66755C14.6664 4.93135 14.6932 5.19431 14.7422 5.45355L7.8322 8.59355C7.16854 7.97177 6.33771 7.55739 5.44177 7.40132C4.54584 7.24524 3.62383 7.35427 2.78901 7.71501C1.95419 8.07575 1.24293 8.67249 0.742596 9.43192C0.242267 10.1913 -0.0253343 11.0804 -0.0273325 11.9898C-0.0293306 12.8992 0.234362 13.7894 0.731349 14.551C1.22834 15.3127 1.93697 15.9125 2.7702 16.2769C3.60342 16.6413 4.52495 16.7544 5.42156 16.6023C6.31817 16.4501 7.15081 16.0394 7.8172 15.4206L14.7452 18.5486C14.6971 18.8076 14.6707 19.0701 14.6662 19.3336C14.666 20.2567 14.9396 21.1591 15.4523 21.9268C15.9651 22.6944 16.6939 23.2928 17.5468 23.6461C18.3996 23.9995 19.338 24.092 20.2434 23.9119C21.1488 23.7319 21.9805 23.2874 22.6333 22.6346C23.286 21.9819 23.7305 21.1502 23.9106 20.2448C24.0906 19.3394 23.9981 18.4009 23.6448 17.5481C23.2914 16.6953 22.6931 15.9664 21.9254 15.4537C21.1578 14.9409 20.2553 14.6674 19.3322 14.6676ZM19.3322 2.00055C19.8597 2.00036 20.3755 2.1566 20.8142 2.44954C21.2529 2.74247 21.5949 3.15893 21.7969 3.64624C21.9989 4.13356 22.0519 4.66983 21.9491 5.18725C21.8463 5.70466 21.5924 6.17997 21.2194 6.55305C20.8465 6.92614 20.3712 7.18025 19.8539 7.28323C19.3365 7.38622 18.8002 7.33347 18.3128 7.13164C17.8254 6.92981 17.4088 6.58797 17.1157 6.14936C16.8226 5.71076 16.6662 5.19508 16.6662 4.66755C16.6667 3.96056 16.9478 3.28265 17.4476 2.78264C17.9474 2.28262 18.6252 2.00135 19.3322 2.00055ZM4.6662 14.6676C4.13867 14.6678 3.62294 14.5115 3.18422 14.2186C2.7455 13.9256 2.40351 13.5092 2.2015 13.0219C1.99949 12.5346 1.94653 11.9983 2.04932 11.4809C2.15212 10.9634 2.40605 10.4881 2.77899 10.1151C3.15194 9.74197 3.62715 9.48786 4.14453 9.38487C4.6619 9.28189 5.1982 9.33464 5.68559 9.53647C6.17297 9.7383 6.58956 10.0801 6.88266 10.5187C7.17576 10.9574 7.3322 11.473 7.3322 12.0006C7.33141 12.7075 7.0503 13.3852 6.55053 13.8852C6.05076 14.3851 5.37312 14.6665 4.6662 14.6676ZM19.3322 22.0006C18.8047 22.0006 18.2891 21.8441 17.8505 21.5511C17.4119 21.258 17.0701 20.8415 16.8682 20.3542C16.6664 19.8668 16.6135 19.3306 16.7164 18.8132C16.8194 18.2959 17.0734 17.8207 17.4463 17.4477C17.8193 17.0747 18.2945 16.8207 18.8119 16.7178C19.3292 16.6149 19.8655 16.6677 20.3528 16.8696C20.8401 17.0714 21.2567 17.4133 21.5497 17.8518C21.8428 18.2904 21.9992 18.8061 21.9992 19.3336C21.9987 20.0407 21.7175 20.7188 21.2175 21.2188C20.7174 21.7189 20.0394 22 19.3322 22.0006Z" fill="#4E90A8"/>
</g>
<defs>
<clipPath id="clip0_18040_93514">
<rect width="24" height="24" fill="white"/>
</clipPath>
</defs>
</svg>
