<svg width="24" height="24" viewBox="0 0 24 24" fill="none" xmlns="http://www.w3.org/2000/svg">
<g clip-path="url(#clip0_18040_93367)">
<path d="M7.50498 23.9997C5.69473 23.9985 3.94598 23.3426 2.58143 22.1531C1.21688 20.9636 0.328614 19.3206 0.0805405 17.5274C-0.167533 15.7343 0.241329 13.9119 1.23168 12.3966C2.22203 10.8812 3.72703 9.77524 5.46898 9.28265C6.7351 8.92008 8.07527 8.9035 9.34998 9.23465L17.258 1.32865C17.6778 0.905936 18.1774 0.570787 18.7277 0.342649C19.2781 0.11451 19.8682 -0.00207601 20.464 -0.000347264C21.4015 0.000447168 22.3005 0.373244 22.9634 1.0362C23.6264 1.69916 23.9992 2.59809 24 3.53565C24.0015 4.13144 23.885 4.72163 23.657 5.27209C23.4291 5.82256 23.0943 6.32238 22.672 6.74265L22 7.41465C21.624 7.78809 21.1159 7.99828 20.586 7.99965H19V8.99965C19 9.53009 18.7893 10.0388 18.4142 10.4139C18.0391 10.7889 17.5304 10.9997 17 10.9997H16V12.5857C16.0007 12.8484 15.9493 13.1087 15.8487 13.3514C15.7481 13.5941 15.6003 13.8144 15.414 13.9997L14.764 14.6497C15.0969 15.9237 15.0807 17.264 14.717 18.5297C14.3077 19.9717 13.4773 21.2587 12.3321 22.2259C11.1869 23.1931 9.77913 23.7964 8.28898 23.9587C8.02852 23.9857 7.76684 23.9994 7.50498 23.9997ZM7.50498 10.9997C6.48113 10.9987 5.47732 11.2835 4.60656 11.822C3.73581 12.3606 3.03266 13.1315 2.57628 14.048C2.1199 14.9645 1.92841 15.9902 2.02335 17.0097C2.1183 18.0291 2.49591 19.0018 3.1137 19.8183C3.73148 20.6348 4.5649 21.2626 5.52013 21.6311C6.47537 21.9996 7.51451 22.0941 8.52057 21.9041C9.52662 21.714 10.4597 21.2469 11.2147 20.5554C11.9696 19.8638 12.5166 18.9752 12.794 17.9897C13.106 16.9062 13.071 15.7522 12.694 14.6897C12.6324 14.5122 12.6221 14.321 12.6642 14.1379C12.7063 13.9549 12.7991 13.7874 12.932 13.6547L14 12.5857V10.9997C14 10.4692 14.2107 9.96051 14.5858 9.58544C14.9608 9.21037 15.4695 8.99965 16 8.99965H17V7.99965C17 7.46922 17.2107 6.96051 17.5858 6.58544C17.9608 6.21037 18.4695 5.99965 19 5.99965H20.586L21.258 5.32765C21.4939 5.09281 21.681 4.81352 21.8084 4.50593C21.9357 4.19834 22.0008 3.86856 22 3.53565C21.9997 3.12853 21.8379 2.73815 21.5502 2.45018C21.2624 2.16221 20.8721 2.00018 20.465 1.99965C20.1318 1.99883 19.8018 2.06408 19.4941 2.19161C19.1863 2.31915 18.9069 2.50644 18.672 2.74265L10.341 11.0727C10.208 11.2055 10.0403 11.2983 9.85707 11.3402C9.67383 11.3821 9.48248 11.3715 9.30498 11.3097C8.72505 11.1055 8.1148 11.0007 7.49998 10.9997H7.50498ZM4.99998 17.9997C4.99998 18.1974 5.05863 18.3908 5.16851 18.5552C5.27839 18.7197 5.43457 18.8478 5.61729 18.9235C5.80002 18.9992 6.00109 19.019 6.19507 18.9804C6.38905 18.9419 6.56723 18.8466 6.70708 18.7068C6.84694 18.5669 6.94218 18.3887 6.98076 18.1947C7.01935 18.0008 6.99954 17.7997 6.92386 17.617C6.84817 17.4342 6.72 17.2781 6.55555 17.1682C6.3911 17.0583 6.19776 16.9997 5.99998 16.9997C5.73476 16.9997 5.48041 17.105 5.29287 17.2925C5.10533 17.4801 4.99998 17.7344 4.99998 17.9997Z" fill="#374957"/>
</g>
<defs>
<clipPath id="clip0_18040_93367">
<rect width="24" height="24" fill="white"/>
</clipPath>
</defs>
</svg>
