<svg width="24" height="24" viewBox="0 0 24 24" fill="none" xmlns="http://www.w3.org/2000/svg">
<path fill-rule="evenodd" clip-rule="evenodd" d="M15.9691 1.35862L15.8442 1.48347V4.51184V7.5402L15.962 7.65799C16.0774 7.77344 16.0957 7.77584 16.8596 7.77584H17.6395L18.0858 8.07017L18.5322 8.36451V9.32849V10.2924L17.6533 9.41815L16.7743 8.54384H15.4696H14.1648L13.8053 7.8259C13.6075 7.43105 13.4036 7.08545 13.3521 7.0579C13.2254 6.99012 10.783 6.99012 10.6563 7.0579C10.6048 7.08545 10.4009 7.43105 10.2031 7.8259L9.84358 8.54384H9.50869H9.17374L7.81462 9.70784L6.4555 10.8718L3.77 11.2535C1.32195 11.6014 1.07489 11.6448 0.97635 11.7433C0.872862 11.8468 0.868206 11.8856 0.868206 12.6485V13.4455L0.730158 13.6227C0.360798 14.0966 0.403662 14.6586 0.842574 15.0975C1.15697 15.4119 1.31768 15.4558 2.15245 15.4558H2.8255L2.85641 15.6205C2.91617 15.9391 3.20941 16.4389 3.49817 16.7143C4.41982 17.5935 5.76459 17.5935 6.68624 16.7143C6.97501 16.4389 7.26824 15.9391 7.328 15.6205L7.35891 15.4558H12.9455C19.3833 15.4558 18.8752 15.409 18.0858 15.9295L17.6395 16.2238H16.8596C16.0957 16.2238 16.0774 16.2262 15.962 16.3417L15.8442 16.4595V19.4878V22.5162L15.9691 22.641C16.093 22.7649 16.098 22.7657 16.6291 22.7346C18.3584 22.6335 19.955 21.9487 21.1928 20.7772C22.382 19.6518 23.0862 18.3679 23.4139 16.7278C23.4931 16.3313 23.5002 15.943 23.5002 11.9998C23.5002 8.04305 23.4933 7.66971 23.4132 7.27183C23.0803 5.61886 22.385 4.35075 21.1928 3.22246C19.9461 2.04257 18.3558 1.36313 16.6064 1.26305C16.1008 1.23411 16.0923 1.2354 15.9691 1.35862ZM17.1522 2.08865L17.3802 2.11774V4.56276V7.00783H16.9962H16.6122V4.50968V2.01147L16.7682 2.03556C16.854 2.04876 17.0268 2.07267 17.1522 2.08865ZM18.7909 2.54763C20.8748 3.44211 22.3464 5.355 22.6838 7.60783C22.7922 8.33163 22.7902 15.6678 22.6814 16.4097C22.5992 16.97 22.3213 17.8654 22.0816 18.3422C21.3837 19.7302 20.2033 20.8458 18.7909 21.452C18.5563 21.5528 18.3156 21.6503 18.2562 21.6688L18.1482 21.7023V19.2576V16.8129L18.679 16.462C18.971 16.269 19.2302 16.073 19.255 16.0266C19.3157 15.9132 19.3157 8.08649 19.255 7.97311C19.2302 7.92665 18.971 7.73072 18.679 7.53771L18.1482 7.18673V4.74204V2.29736L18.2562 2.33091C18.3156 2.34934 18.5563 2.44688 18.7909 2.54763ZM13.1082 8.15983L13.3013 8.54384H12.0042H10.7071L10.9002 8.15983L11.0933 7.77584H12.0042H12.9151L13.1082 8.15983ZM21.338 9.04567C21.2212 9.16251 21.2202 9.17091 21.2202 10.0798C21.2202 10.9888 21.2212 10.9972 21.338 11.114C21.4123 11.1883 21.5107 11.2318 21.6042 11.2318C21.6977 11.2318 21.7961 11.1883 21.8704 11.114C21.9872 10.9972 21.9882 10.9888 21.9882 10.0798C21.9882 9.17091 21.9872 9.16251 21.8704 9.04567C21.7961 8.97137 21.6977 8.92783 21.6042 8.92783C21.5107 8.92783 21.4123 8.97137 21.338 9.04567ZM13.1562 10.0798V10.8478H10.4093H7.66232L7.82926 10.709C7.92109 10.6327 8.32021 10.2885 8.71621 9.94423L9.43621 9.31827L11.2962 9.31505L13.1562 9.31184V10.0798ZM17.2122 10.0798L17.9791 10.8478H15.9516H13.9242V10.0798V9.31184H15.1848H16.4453L17.2122 10.0798ZM13.1562 12.5758V13.5358H12.7722H12.3882V13.9198V14.3038H12.7722H13.1562V14.4958V14.6878H10.2575H7.35891L7.32953 14.5318C7.31341 14.446 7.23541 14.2389 7.15621 14.0715C7.07701 13.9041 7.01221 13.7152 7.01221 13.6515C7.01221 13.5691 6.98547 13.5358 6.91913 13.5358C6.86792 13.5358 6.72214 13.4458 6.59513 13.3358C6.10117 12.9079 5.35678 12.6948 4.73086 12.802C4.32449 12.8716 3.85832 13.0926 3.58357 13.3458L3.36421 13.5481L3.14926 13.3499L2.93437 13.1518H2.28526H1.63621V12.7438C1.63621 12.5194 1.64158 12.3351 1.64821 12.3342C1.65483 12.3332 2.75101 12.1736 4.08421 11.9793L6.50821 11.6262L9.83221 11.621L13.1562 11.6158V12.5758ZM18.5322 12.1918V12.7678H18.1482H17.7642V13.1518V13.5358H18.1482H18.5322V14.1118V14.6878H16.2282H13.9242V14.4958V14.3038H14.3082H14.6922V13.9198V13.5358H14.3082H13.9242V12.5758V11.6158H16.2282H18.5322V12.1918ZM21.338 12.1177C21.2351 12.2206 21.2202 12.2785 21.2202 12.5758C21.2202 12.8732 21.2351 12.9311 21.338 13.034C21.4123 13.1083 21.5107 13.1518 21.6042 13.1518C21.6977 13.1518 21.7961 13.1083 21.8704 13.034C21.9733 12.9311 21.9882 12.8732 21.9882 12.5758C21.9882 12.2785 21.9733 12.2206 21.8704 12.1177C21.7961 12.0434 21.6977 11.9998 21.6042 11.9998C21.5107 11.9998 21.4123 12.0434 21.338 12.1177ZM7.01221 13.1518V13.5358H7.39621H7.78021V13.9198V14.3038H8.16421H8.54821V13.9198V13.5358H8.93221H9.31621V13.9198V14.3038H9.70021H10.0842V13.9198V13.5358H10.4682H10.8522V13.9198V14.3038H11.2362H11.6202V13.9198V13.5358H12.0042H12.3882V13.1518V12.7678H12.0042H11.6202V13.1518V13.5358H11.2362H10.8522V13.1518V12.7678H10.4682H10.0842V13.1518V13.5358H9.70021H9.31621V13.1518V12.7678H8.93221H8.54821V13.1518V13.5358H8.16421H7.78021V13.1518V12.7678H7.39621H7.01221V13.1518ZM14.6922 13.1518V13.5358H15.0762H15.4602V13.9198V14.3038H15.8442H16.2282V13.9198V13.5358H16.6122H16.9962V13.9198V14.3038H17.3802H17.7642V13.9198V13.5358H17.3802H16.9962V13.1518V12.7678H16.6122H16.2282V13.1518V13.5358H15.8442H15.4602V13.1518V12.7678H15.0762H14.6922V13.1518ZM5.74021 13.6837C6.04361 13.8276 6.33272 14.1151 6.48449 14.4238C6.58193 14.622 6.60243 14.735 6.60209 15.0718C6.60171 15.4437 6.58731 15.5066 6.43894 15.7823C6.25765 16.1192 6.10688 16.2648 5.74534 16.4522C5.5376 16.5598 5.43795 16.5795 5.09221 16.5807C4.75405 16.5819 4.64312 16.5619 4.44421 16.4641C3.19645 15.8506 3.30037 14.0898 4.61245 13.613C4.91537 13.5029 5.42686 13.535 5.74021 13.6837ZM2.78067 14.0801C2.93403 14.2383 2.93523 14.2432 2.87614 14.4641L2.81629 14.6878H2.15206C1.51083 14.6878 1.48376 14.6838 1.37005 14.57C1.29574 14.4957 1.25221 14.3973 1.25221 14.3038C1.25221 14.2103 1.29574 14.1119 1.37005 14.0377C1.48184 13.9258 1.51673 13.9198 2.05659 13.9198H2.62539L2.78067 14.0801ZM4.77781 14.3714C4.29353 14.5823 4.17915 15.2261 4.55854 15.6055C5.09782 16.1448 5.98155 15.6618 5.83966 14.9052C5.75475 14.4528 5.21451 14.1811 4.77781 14.3714ZM17.3802 19.4369V21.8819L17.1522 21.911C17.0268 21.927 16.854 21.9509 16.7682 21.9641L16.6122 21.9882V19.49V16.9918H16.9962H17.3802V19.4369Z" fill="#2A220E"/>
</svg>
