<svg width="30" height="30" viewBox="0 0 30 30" fill="none" xmlns="http://www.w3.org/2000/svg">
<path fill-rule="evenodd" clip-rule="evenodd" d="M24.2819 3.18326C23.9764 3.26432 23.6396 3.58622 23.6396 3.79718C23.6396 3.98126 23.9304 4.31048 24.0929 4.31048C24.1493 4.31048 24.2852 4.25498 24.3949 4.18718L24.5944 4.06388L24.837 4.20218L25.0796 4.34048L25.3222 4.20218L25.5648 4.06388L25.7643 4.18718C25.874 4.25498 26.0099 4.31048 26.0663 4.31048C26.2217 4.31048 26.5196 3.98138 26.5196 3.80972C26.5196 3.40394 25.8271 3.03386 25.3221 3.16982C25.1504 3.21608 25.0112 3.2171 24.8537 3.17336C24.5967 3.10202 24.5877 3.1022 24.2819 3.18326ZM5.42961 5.042C5.33061 5.07614 5.15511 5.17706 5.03961 5.26634C4.92411 5.35562 4.69461 5.46584 4.52961 5.51126C3.96417 5.6669 3.47961 6.30338 3.47961 6.89048C3.47961 7.44518 3.96093 8.10518 4.47657 8.25752C4.81077 8.35628 6.94845 8.35628 7.28265 8.25752C7.79829 8.10518 8.27961 7.44518 8.27961 6.89048C8.27961 6.30338 7.79505 5.6669 7.22961 5.51126C7.06461 5.46584 6.83511 5.35592 6.71961 5.267C6.35037 4.98272 5.85315 4.89602 5.42961 5.042ZM21.8819 5.10326C21.5764 5.18432 21.2396 5.50622 21.2396 5.71718C21.2396 5.90126 21.5304 6.23048 21.6929 6.23048C21.7493 6.23048 21.8852 6.17498 21.9949 6.10718L22.1944 5.98388L22.437 6.12218L22.6796 6.26048L22.9222 6.12218L23.1648 5.98388L23.3643 6.10718C23.474 6.17498 23.6099 6.23048 23.6663 6.23048C23.8217 6.23048 24.1196 5.90138 24.1196 5.72972C24.1196 5.32394 23.4271 4.95386 22.9221 5.08982C22.7503 5.13608 22.6112 5.1371 22.4537 5.09336C22.1967 5.02202 22.1877 5.0222 21.8819 5.10326ZM6.29961 6.17048C6.49803 6.37292 6.57321 6.41048 6.77997 6.41048C7.25793 6.41048 7.49469 6.90086 7.17231 7.22318C7.02627 7.36928 7.01577 7.37048 5.87961 7.37048C4.74345 7.37048 4.73295 7.36928 4.58691 7.22318C4.26453 6.90086 4.50129 6.41048 4.97925 6.41048C5.18601 6.41048 5.26119 6.37292 5.45961 6.17048C5.63319 5.99336 5.74329 5.93048 5.87961 5.93048C6.01593 5.93048 6.12603 5.99336 6.29961 6.17048ZM25.0911 6.32414C24.6161 6.52388 24.4587 6.93506 24.7469 7.22318C24.9198 7.39616 25.1416 7.41158 25.3854 7.26752C25.55 7.17032 25.5692 7.17032 25.7339 7.26752C25.8297 7.32416 25.9673 7.37048 26.0396 7.37048C26.1119 7.37048 26.2495 7.32416 26.3454 7.26752C26.51 7.17032 26.5292 7.17032 26.6938 7.26752C26.9376 7.41158 27.1594 7.39616 27.3323 7.22318C27.6217 6.9338 27.4613 6.5198 26.984 6.3242C26.7181 6.21524 25.3503 6.21518 25.0911 6.32414ZM9.55227 6.95756C9.28443 7.03568 8.90145 7.4321 8.82387 7.71158C8.78889 7.83746 8.76015 8.24222 8.75997 8.61098C8.75967 9.22106 8.73831 9.3509 8.52297 10.051C8.24139 10.9668 7.97853 11.6317 7.48809 12.6687C7.16589 13.35 7.12821 13.468 7.15557 13.7106C7.18869 14.0046 7.31877 14.2197 7.58265 14.4168C7.71195 14.5133 7.85931 14.5451 8.25399 14.5617L8.75961 14.5828V16.0167V17.4505H6.50691H4.25415L4.10691 17.5978C3.91203 17.7926 3.91203 18.0684 4.10691 18.2632C4.22781 18.3841 4.31361 18.4105 4.58691 18.4105H4.91961V18.8905V19.3705H4.58691C4.18653 19.3705 3.95961 19.5441 3.95961 19.8505C3.95961 20.1568 4.18653 20.3305 4.58691 20.3305H4.91961V21.1745C4.91961 21.9505 4.91115 22.016 4.81461 21.9868C4.53165 21.9011 3.16347 21.5901 2.81961 21.5332C2.60511 21.4977 2.08815 21.4515 1.67085 21.4306L0.912089 21.3925L0.755849 21.5488C0.556229 21.7484 0.548429 22.0248 0.737189 22.2135C0.860909 22.3372 0.949829 22.3548 1.62219 22.3882C2.43975 22.4288 2.73105 22.4746 3.80961 22.7327C4.85871 22.9837 5.20527 23.0319 6.23961 23.0708C7.41843 23.1152 8.21157 23.0317 9.47961 22.7296C11.4664 22.2562 12.9077 22.2415 14.6996 22.6765C15.904 22.9688 16.3517 23.035 17.3696 23.0715C18.4732 23.1109 19.2871 23.0386 20.2496 22.8154C21.775 22.4618 22.0049 22.4252 22.9196 22.3899C24.0746 22.3453 24.7969 22.4227 26.0996 22.7306C27.134 22.975 27.9614 23.0905 28.68 23.0905C29.0513 23.0905 29.1237 23.0719 29.2523 22.9432C29.4429 22.7527 29.4471 22.4725 29.2622 22.2876C29.1381 22.1635 29.0493 22.1464 28.3472 22.1109C27.6039 22.0734 27.3282 22.0272 25.8296 21.6897C25.4666 21.6079 25.0414 21.5235 24.8846 21.5021L24.5996 21.4631V21.1368V20.8105H26.8523H29.1051L29.2523 20.6632C29.4472 20.4684 29.4472 20.1926 29.2523 19.9978L29.1051 19.8505H27.6659H26.2267L26.3751 19.4155C26.6037 18.7449 26.806 17.9506 26.8867 17.4066C26.9725 16.8282 26.9908 16.8301 27.3983 17.4584C27.5402 17.6773 27.6997 17.8731 27.7528 17.8934C28.0704 18.0153 28.4396 17.7849 28.4396 17.4649C28.4396 17.2944 28.1784 16.8214 27.9429 16.5655C27.6933 16.2942 28.1859 16.4845 28.5467 16.7988C28.7957 17.0157 29.051 17.0245 29.2523 16.8232C29.4524 16.6232 29.4457 16.3624 29.2346 16.1329C28.9582 15.8323 28.3989 15.5405 27.8894 15.431C27.631 15.3754 27.4196 15.3117 27.4196 15.2892C27.4196 15.2667 27.4806 15.1565 27.5551 15.0444C27.715 14.8037 28.1432 14.5705 28.425 14.5705C28.8588 14.5705 29.0762 14.0616 28.7723 13.7578C28.3739 13.3593 27.2212 13.8045 26.7581 14.5357C26.6434 14.7166 26.5355 14.866 26.5182 14.8676C26.501 14.8692 26.4348 14.7736 26.371 14.6553C26.0739 14.1035 25.4274 13.6852 24.7812 13.6266C24.4617 13.5976 24.4159 13.6087 24.2748 13.7499C23.9634 14.0613 24.174 14.5705 24.6142 14.5705C24.8961 14.5705 25.3242 14.8037 25.4841 15.0444C25.5587 15.1565 25.6196 15.2667 25.6196 15.2892C25.6196 15.3117 25.4082 15.3754 25.1499 15.431C24.6403 15.5405 24.081 15.8323 23.8046 16.1329C23.5935 16.3624 23.5869 16.6232 23.7869 16.8232C23.9882 17.0245 24.2435 17.0157 24.4925 16.7988C24.8731 16.4673 25.4631 16.2681 25.8501 16.3405L26.0505 16.378L26.0103 16.7492C25.9373 17.4215 25.7461 18.2486 25.4806 19.0405L25.2191 19.8205L23.9943 19.8377C22.7937 19.8546 22.7546 19.8512 22.0046 19.6657L21.2396 19.4766V17.0296V14.5828L21.7452 14.5617C22.1399 14.5451 22.2873 14.5133 22.4166 14.4168C22.6805 14.2197 22.8105 14.0046 22.8437 13.7106C22.871 13.468 22.8333 13.35 22.5111 12.6687C22.0585 11.7117 21.7791 11.0193 21.5006 10.1649C21.3047 9.56384 21.2803 9.41402 21.2449 8.59328C21.2085 7.7456 21.1955 7.6703 21.0468 7.44566C20.9593 7.31342 20.7846 7.14116 20.6586 7.06286L20.4296 6.92048L15.0896 6.91028C11.8262 6.90398 9.67287 6.9224 9.55227 6.95756ZM20.2076 7.92248C20.2495 7.96436 20.2796 8.16512 20.2796 8.40248V8.81048H14.9996H9.71961V8.40248C9.71961 8.16512 9.74973 7.96436 9.79161 7.92248C9.89595 7.81814 20.1033 7.81814 20.2076 7.92248ZM25.1096 8.402C25.0106 8.43614 24.8351 8.53706 24.7196 8.62634C24.6041 8.71562 24.3746 8.82584 24.2096 8.87126C23.6442 9.0269 23.1596 9.66338 23.1596 10.2505C23.1596 10.8052 23.6409 11.4652 24.1566 11.6175C24.4908 11.7163 26.6285 11.7163 26.9627 11.6175C27.4783 11.4652 27.9596 10.8052 27.9596 10.2505C27.9596 9.66338 27.475 9.0269 26.9096 8.87126C26.7446 8.82584 26.5151 8.71592 26.3996 8.627C26.0304 8.34272 25.5331 8.25602 25.1096 8.402ZM3.02589 8.86298C2.67411 8.95436 2.20245 9.25826 2.01567 9.51392C1.88619 9.69104 1.75659 9.791 1.58961 9.84248C1.07859 9.99992 0.599609 10.6618 0.599609 11.2105C0.599609 11.7652 1.08093 12.4252 1.59657 12.5775C1.76397 12.627 2.37045 12.6505 3.47961 12.6505C4.58877 12.6505 5.19525 12.627 5.36265 12.5775C5.87829 12.4252 6.35961 11.7652 6.35961 11.2105C6.35961 10.6603 5.87883 9.99704 5.36961 9.84458C5.20617 9.79562 5.08305 9.70388 4.98369 9.557C4.83555 9.33788 4.49433 9.0779 4.17177 8.93834C3.95205 8.84324 3.27357 8.7986 3.02589 8.86298ZM25.9796 9.53048C26.178 9.73292 26.2532 9.77048 26.46 9.77048C26.9379 9.77048 27.1747 10.2609 26.8523 10.5832C26.7063 10.7293 26.6958 10.7305 25.5596 10.7305C24.4235 10.7305 24.4129 10.7293 24.2669 10.5832C23.9445 10.2609 24.1813 9.77048 24.6593 9.77048C24.866 9.77048 24.9412 9.73292 25.1396 9.53048C25.3132 9.35336 25.4233 9.29048 25.5596 9.29048C25.6959 9.29048 25.806 9.35336 25.9796 9.53048ZM3.85935 9.85232C4.06911 9.93998 4.37961 10.2673 4.37961 10.4007C4.37961 10.5383 4.68315 10.7305 4.90041 10.7305C5.33865 10.7305 5.55813 11.2374 5.25231 11.5432L5.10507 11.6905H3.47961H1.85415L1.70691 11.5432C1.40109 11.2374 1.62057 10.7305 2.05881 10.7305C2.27607 10.7305 2.57961 10.5383 2.57961 10.4007C2.57961 10.2722 2.88615 9.9422 3.08661 9.8549C3.32481 9.75116 3.61485 9.7502 3.85935 9.85232ZM10.4396 9.7955C10.4396 9.80924 10.3856 9.94652 10.3196 10.1005C10.1616 10.4691 10.1682 10.6446 10.3469 10.8232C10.5137 10.99 10.7686 11.0155 10.9563 10.8841C11.0241 10.8365 11.169 10.5665 11.2782 10.2841L11.4768 9.77048H11.9182C12.1609 9.77048 12.3596 9.78176 12.3596 9.7955C12.3596 9.80924 12.3056 9.94652 12.2396 10.1005C12.0816 10.4691 12.0882 10.6446 12.2669 10.8232C12.4337 10.99 12.6886 11.0155 12.8763 10.8841C12.9441 10.8365 13.089 10.5665 13.1982 10.2841L13.3968 9.77048H13.8382C14.0809 9.77048 14.2796 9.78176 14.2796 9.7955C14.2796 9.80924 14.2256 9.94652 14.1596 10.1005C14.0016 10.4691 14.0082 10.6446 14.1869 10.8232C14.3537 10.99 14.6086 11.0155 14.7963 10.8841C14.8641 10.8365 15.009 10.5665 15.1182 10.2841L15.3168 9.77048H15.7582C16.0009 9.77048 16.1996 9.78176 16.1996 9.7955C16.1996 9.80924 16.1456 9.94652 16.0796 10.1005C15.9216 10.4691 15.9282 10.6446 16.1069 10.8232C16.2737 10.99 16.5286 11.0155 16.7163 10.8841C16.7841 10.8365 16.929 10.5665 17.0382 10.2841L17.2368 9.77048H17.6182C17.8279 9.77048 17.9996 9.79076 17.9995 9.81548C17.9995 9.8402 17.946 10.0015 17.8805 10.1739C17.746 10.5277 17.7803 10.714 18.0091 10.8744C18.3476 11.1115 18.6024 10.9336 18.8653 10.2768L19.0561 9.80048L19.4879 9.78284C19.7253 9.77318 19.9196 9.78668 19.9195 9.81284C19.9195 9.83906 19.866 10.0015 19.8005 10.1739C19.666 10.5277 19.7003 10.714 19.9291 10.8744C20.1131 11.0032 20.2917 10.9954 20.476 10.8505C20.5599 10.7845 20.6411 10.7305 20.6563 10.7305C20.6715 10.7305 20.7579 10.9398 20.8481 11.1955C21.0571 11.7883 21.4363 12.6854 21.6977 13.2055L21.9011 13.6105H14.9996H8.09811L8.30157 13.2055C8.73303 12.3468 9.23061 11.0725 9.50811 10.1155L9.60813 9.77048H10.0239C10.2525 9.77048 10.4396 9.78176 10.4396 9.7955ZM9.90969 11.3155C9.75333 11.4487 9.35961 12.431 9.35961 12.6878C9.35961 12.8259 9.40515 12.9176 9.51771 13.0061C9.88281 13.2933 10.161 13.0933 10.4665 12.3238C10.7188 11.6884 10.728 11.5534 10.5323 11.3578C10.3575 11.1829 10.0869 11.1645 9.90969 11.3155ZM11.8297 11.3155C11.6733 11.4487 11.2796 12.431 11.2796 12.6878C11.2796 12.8259 11.3251 12.9176 11.4377 13.0061C11.8028 13.2933 12.081 13.0933 12.3865 12.3238C12.6388 11.6884 12.648 11.5534 12.4523 11.3578C12.2775 11.1829 12.0069 11.1645 11.8297 11.3155ZM13.7497 11.3155C13.5933 11.4487 13.1996 12.431 13.1996 12.6878C13.1996 12.8259 13.2451 12.9176 13.3577 13.0061C13.7228 13.2933 14.001 13.0933 14.3065 12.3238C14.5588 11.6884 14.568 11.5534 14.3723 11.3578C14.1975 11.1829 13.9269 11.1645 13.7497 11.3155ZM15.6697 11.3155C15.5133 11.4487 15.1196 12.431 15.1196 12.6878C15.1196 12.8259 15.1652 12.9176 15.2777 13.0061C15.6428 13.2933 15.921 13.0933 16.2265 12.3238C16.4788 11.6884 16.488 11.5534 16.2923 11.3578C16.1175 11.1829 15.8469 11.1645 15.6697 11.3155ZM17.496 11.3455C17.3346 11.4905 16.9196 12.4621 16.9196 12.6949C16.9196 12.8935 17.1756 13.1305 17.3902 13.1305C17.6572 13.1305 17.7923 12.9718 18.0262 12.3838C18.2868 11.7284 18.2986 11.5056 18.0815 11.3349C17.8767 11.1737 17.6833 11.1772 17.496 11.3455ZM19.416 11.3455C19.2546 11.4905 18.8396 12.4621 18.8396 12.6949C18.8396 12.8935 19.0956 13.1305 19.3102 13.1305C19.5772 13.1305 19.7123 12.9718 19.9462 12.3838C20.2068 11.7284 20.2186 11.5056 20.0015 11.3349C19.7967 11.1737 19.6033 11.1772 19.416 11.3455ZM20.2796 16.0105V17.4505H18.6065H16.9332L16.8911 17.1655C16.8356 16.7897 16.5309 16.225 16.2657 16.0064C15.8583 15.6706 15.5588 15.5666 14.9996 15.5666C14.5822 15.5666 14.4351 15.593 14.1896 15.7121C13.6176 15.9896 13.1832 16.576 13.0999 17.183L13.0633 17.4505H11.3914H9.71961V16.0105V14.5705H14.9996H20.2796V16.0105ZM15.5254 16.6508C15.9129 16.9402 15.9279 16.9963 15.9483 18.2347L15.9669 19.3705H15.0033H14.0396V18.3244C14.0396 17.729 14.0672 17.2055 14.1036 17.1094C14.1881 16.8864 14.3874 16.6747 14.6096 16.5718C14.8487 16.4611 15.3265 16.5024 15.5254 16.6508ZM6.83961 18.8905V19.3705H6.35961H5.87961V18.8905V18.4105H6.35961H6.83961V18.8905ZM8.75961 18.8905V19.3705H8.27961H7.79961V18.8905V18.4105H8.27961H8.75961V18.8905ZM13.0796 18.8905V19.3705H11.3996H9.71961V18.8905V18.4105H11.3996H13.0796V18.8905ZM20.2796 18.8905V19.3705H18.5996H16.9196V18.8905V18.4105H18.5996H20.2796V18.8905ZM8.75961 21.1317V21.9329L8.32461 22.0079C8.08533 22.0491 7.43739 22.0974 6.88461 22.115L5.87961 22.1471V21.2388V20.3305H7.31961H8.75961V21.1317ZM20.2796 21.0781V21.8259L20.0546 21.8844C19.5301 22.0207 19.0572 22.0789 18.2096 22.1114C17.1017 22.1539 16.2947 22.0716 15.1974 21.8045C13.8148 21.468 13.578 21.4401 12.1496 21.4456C11.167 21.4494 10.7069 21.4762 10.3496 21.5506C10.0856 21.6055 9.83589 21.6505 9.79461 21.6505C9.73917 21.6505 9.71961 21.4785 9.71961 20.9905V20.3305H14.9996H20.2796V21.0781ZM23.1146 20.8092L23.6396 20.8105V21.1105V21.4105L23.1746 21.4115C22.7111 21.4126 21.7179 21.4987 21.4046 21.565L21.2396 21.6V21.0318V20.4635L21.9146 20.6357C22.4003 20.7595 22.7369 20.8082 23.1146 20.8092ZM0.755849 23.4688C0.556229 23.6684 0.548429 23.9448 0.737189 24.1335C0.860909 24.2572 0.949829 24.2748 1.62219 24.3082C2.43975 24.3488 2.73105 24.3946 3.80961 24.6527C4.85871 24.9037 5.20527 24.9519 6.23961 24.9908C7.41843 25.0352 8.21157 24.9517 9.47961 24.6496C11.4664 24.1762 12.9077 24.1615 14.6996 24.5965C15.904 24.8888 16.3517 24.955 17.3696 24.9915C18.4732 25.0309 19.2871 24.9586 20.2496 24.7354C21.775 24.3818 22.0049 24.3452 22.9196 24.3099C24.0746 24.2653 24.7969 24.3427 26.0996 24.6506C27.134 24.895 27.9614 25.0105 28.68 25.0105C29.0513 25.0105 29.1237 24.9919 29.2523 24.8632C29.4429 24.6727 29.4471 24.3925 29.2622 24.2076C29.1381 24.0835 29.0493 24.0664 28.3472 24.0309C27.5982 23.9931 27.2632 23.9366 25.8296 23.6063C24.0834 23.2041 22.4607 23.2302 20.5196 23.6918C18.5437 24.1617 17.0708 24.1768 15.2996 23.7452C14.0991 23.4527 13.6491 23.386 12.6296 23.3495C11.526 23.31 10.7121 23.3824 9.74961 23.6055C8.22423 23.9592 7.99431 23.9958 7.07961 24.0311C5.95695 24.0744 5.20683 23.9973 4.04961 23.7193C2.93859 23.4523 2.57463 23.3959 1.67085 23.3506L0.912089 23.3125L0.755849 23.4688ZM0.755849 25.3888C0.556229 25.5884 0.548429 25.8648 0.737189 26.0535C0.860909 26.1772 0.949829 26.1948 1.62219 26.2282C2.43975 26.2688 2.73105 26.3146 3.80961 26.5727C4.85871 26.8237 5.20527 26.8719 6.23961 26.9108C7.41843 26.9552 8.21157 26.8717 9.47961 26.5696C11.4664 26.0962 12.9077 26.0815 14.6996 26.5165C15.904 26.8088 16.3517 26.875 17.3696 26.9115C18.4732 26.9509 19.2871 26.8786 20.2496 26.6554C21.775 26.3018 22.0049 26.2652 22.9196 26.2299C24.0746 26.1853 24.7969 26.2627 26.0996 26.5706C27.134 26.815 27.9614 26.9305 28.68 26.9305C29.0513 26.9305 29.1237 26.9119 29.2523 26.7832C29.4429 26.5927 29.4471 26.3125 29.2622 26.1276C29.1381 26.0035 29.0493 25.9864 28.3472 25.9509C27.5982 25.9131 27.2632 25.8566 25.8296 25.5263C24.0834 25.1241 22.4607 25.1502 20.5196 25.6118C18.5437 26.0817 17.0708 26.0968 15.2996 25.6652C14.0991 25.3727 13.6491 25.306 12.6296 25.2695C11.526 25.23 10.7121 25.3024 9.74961 25.5255C8.22423 25.8792 7.99431 25.9158 7.07961 25.9511C5.95695 25.9944 5.20683 25.9173 4.04961 25.6393C2.93859 25.3723 2.57463 25.3159 1.67085 25.2706L0.912089 25.2325L0.755849 25.3888Z" fill="#2A220E"/>
</svg>
