<svg width="30" height="30" viewBox="0 0 30 30" fill="none" xmlns="http://www.w3.org/2000/svg">
<g clip-path="url(#clip0_18040_93884)">
<path fill-rule="evenodd" clip-rule="evenodd" d="M2.09644 0.637661C1.8094 0.707381 1.29532 1.00858 1.13188 1.20286C1.05028 1.29982 0.910776 1.51702 0.821856 1.68562L0.660156 1.99204V8.74204V15.492L0.865176 15.8701C1.09288 16.29 1.27972 16.4709 1.73374 16.7103L2.04016 16.872L4.93516 16.8897L7.83016 16.9074V16.4264V15.9455L5.02042 15.9288L2.21068 15.912L1.98406 15.7391C1.56322 15.4181 1.58686 15.8595 1.60438 8.65648C1.62004 2.19166 1.62094 2.14978 1.74388 1.98514C1.81192 1.894 1.94212 1.7638 2.03326 1.69576C2.1979 1.57282 2.23978 1.57192 8.7046 1.55626C15.9077 1.53874 15.4662 1.5151 15.7872 1.936L15.9602 2.16262L15.9764 6.41236L15.9925 10.662H16.4732H16.9539L16.937 6.32704L16.9202 1.99204L16.7151 1.61398C16.4874 1.19404 16.3006 1.0132 15.8466 0.773741L15.5402 0.612041L8.91016 0.602561C5.26366 0.597341 2.19748 0.613121 2.09644 0.637661ZM3.66064 2.6461L3.51016 2.79658V8.74204V14.6875L3.65746 14.8347L3.8047 14.982H5.43016H7.05562L7.20286 14.8347L7.35016 14.6875V12.9205V11.1536L8.95516 11.1287C10.4801 11.1051 10.5831 11.0963 11.0202 10.9509C11.7366 10.7127 12.2451 10.3977 12.7854 9.85732C13.3261 9.31666 13.6413 8.80774 13.8786 8.09206C14.0118 7.69048 14.0312 7.52908 14.0312 6.82204C14.0312 6.115 14.0118 5.9536 13.8786 5.55202C13.6413 4.83634 13.3261 4.32742 12.7854 3.78676C12.2476 3.24892 11.7428 2.93524 11.0202 2.68996L10.5602 2.53384L7.18564 2.5147L3.81112 2.49562L3.66064 2.6461ZM10.3841 3.52618C10.9712 3.6319 11.6659 4.00444 12.1168 4.4554C13.4268 5.76532 13.4283 7.8598 12.1202 9.18082C11.6651 9.64042 10.9791 10.0107 10.3841 10.1179C10.1873 10.1534 9.2806 10.182 8.35642 10.182H6.6847L6.53746 10.3293L6.39016 10.4766V12.2493V14.022H5.43016H4.47016V8.74204V3.46204H7.24912C8.95906 3.46204 10.1651 3.4867 10.3841 3.52618ZM6.53746 5.52934C6.39136 5.67538 6.39016 5.68588 6.39016 6.82204C6.39016 7.9582 6.39136 7.9687 6.53746 8.11474L6.6847 8.26204H8.3155C9.42046 8.26204 10.0259 8.23852 10.1932 8.18908C10.7088 8.03674 11.1902 7.37674 11.1902 6.82204C11.1902 6.26734 10.7088 5.60734 10.1932 5.455C10.0259 5.40556 9.42046 5.38204 8.3155 5.38204H6.6847L6.53746 5.52934ZM10.0829 6.48934C10.1757 6.58216 10.2302 6.70516 10.2302 6.82204C10.2302 6.93892 10.1757 7.06192 10.0829 7.15474C9.93562 7.30204 9.93544 7.30204 8.64286 7.30204H7.35016V6.82204V6.34204H8.64286C9.93544 6.34204 9.93562 6.34204 10.0829 6.48934ZM11.7002 11.7054C11.5682 11.7474 11.3778 11.8248 11.277 11.8773C11.0765 11.9819 10.6479 12.4219 10.5275 12.647C10.4856 12.7252 10.0016 14.1384 9.45178 15.7875L8.45212 18.7857L8.06614 18.882C7.85386 18.935 7.5895 19.0263 7.47868 19.085C7.15984 19.254 6.75472 19.6983 6.58036 20.0703L6.42016 20.412V22.752V25.092L6.58186 25.3985C6.82132 25.8525 7.00216 26.0393 7.4221 26.267L7.80016 26.472L9.73516 26.4908L11.6702 26.5095V27.4658V28.422H10.2302H8.79016V27.942V27.462H8.31016H7.83016V28.034C7.83016 28.7112 7.90828 28.9382 8.22412 29.1791L8.4508 29.352H10.2361C11.9456 29.352 12.0284 29.3468 12.1871 29.2283C12.5846 28.9316 12.5984 28.8805 12.6188 27.6378L12.6374 26.502H17.9138H23.1902V27.554C23.1902 28.7496 23.2286 28.9079 23.5841 29.1791L23.8108 29.352H25.5961C27.3056 29.352 27.3884 29.3468 27.5471 29.2283C27.9454 28.9309 27.9584 28.8824 27.9786 27.6217L27.997 26.4698L28.3839 26.2692C28.8099 26.0483 28.9953 25.8594 29.2385 25.3985L29.4002 25.092V22.752V20.412L29.24 20.0703C29.0656 19.6983 28.6605 19.254 28.3416 19.085C28.2308 19.0263 27.9665 18.935 27.7542 18.882L27.3682 18.7857L26.364 15.7737C25.8117 14.1171 25.3053 12.6741 25.2387 12.5669C25.0479 12.2596 24.6866 11.9401 24.3602 11.79L24.0602 11.652L18.0002 11.6405C13.2294 11.6314 11.8891 11.6452 11.7002 11.7054ZM24.0311 12.717C24.2984 12.8525 24.4668 13.0698 24.5425 13.377L24.5832 13.542H17.9102H11.2371L11.2778 13.377C11.3491 13.0878 11.52 12.856 11.7635 12.7181L12.0002 12.584L17.8824 12.583L23.7647 12.582L24.0311 12.717ZM25.6403 16.662L26.3606 18.822H17.9102H9.45976L10.1801 16.662L10.9004 14.502H17.9102H24.92L25.6403 16.662ZM27.7826 19.8948C28.0763 20.0282 28.3242 20.3097 28.4121 20.6097C28.4552 20.7565 28.4711 21.5288 28.4588 22.8827C28.4409 24.845 28.4348 24.9406 28.3164 25.0991C28.2484 25.1901 28.1182 25.3203 28.0271 25.3883L27.8613 25.512H17.9161H7.9708L7.74412 25.3391C7.357 25.0439 7.35016 24.9991 7.35016 22.752C7.35016 21.0701 7.36546 20.7015 7.44304 20.516C7.56688 20.2194 7.7497 20.0295 8.04016 19.8954C8.27032 19.7892 8.67442 19.7847 17.9102 19.7847C27.1249 19.7847 27.5506 19.7894 27.7826 19.8948ZM9.63046 20.8382C8.77846 21.1487 8.2543 21.9362 8.32444 22.8003C8.47924 24.707 10.9824 25.2396 11.9052 23.562C12.1047 23.1994 12.1196 23.1363 12.1175 22.662C12.1157 22.2298 12.091 22.1054 11.9561 21.8456C11.7219 21.3951 11.5389 21.2048 11.1308 20.9873C10.674 20.7437 10.0575 20.6825 9.63046 20.8382ZM24.9905 20.8382C24.1385 21.1487 23.6143 21.9362 23.6844 22.8003C23.8392 24.707 26.3424 25.2396 27.2652 23.562C27.4647 23.1994 27.4796 23.1363 27.4775 22.662C27.4757 22.2298 27.451 22.1054 27.3161 21.8456C27.0819 21.3951 26.8989 21.2048 26.4908 20.9873C26.034 20.7437 25.4175 20.6825 24.9905 20.8382ZM13.1102 21.702V22.182H17.9102H22.7102V21.702V21.222H17.9102H13.1102V21.702ZM10.6099 21.7839C11.2263 22.0415 11.3766 22.8497 10.8972 23.3291C10.508 23.7183 9.9523 23.7183 9.56308 23.3291C8.82112 22.5871 9.63982 21.3786 10.6099 21.7839ZM25.9699 21.7839C26.5863 22.0415 26.7366 22.8497 26.2572 23.3291C25.5831 24.0032 24.4785 23.3994 24.6558 22.4538C24.7619 21.8889 25.4192 21.5538 25.9699 21.7839ZM13.1102 23.622V24.102H17.9102H22.7102V23.622V23.142H17.9102H13.1102V23.622ZM27.0302 27.462V28.422H25.5902H24.1502V27.462V26.502H25.5902H27.0302V27.462Z" fill="#2A220E"/>
</g>
<defs>
<clipPath id="clip0_18040_93884">
<rect width="30" height="30" fill="white"/>
</clipPath>
</defs>
</svg>
