<svg width="24" height="24" viewBox="0 0 24 24" fill="none" xmlns="http://www.w3.org/2000/svg">
<path fill-rule="evenodd" clip-rule="evenodd" d="M14.9525 3.40411C14.435 3.50726 13.9352 3.77472 13.5615 4.14835C13.2657 4.44412 13.092 4.72079 12.9177 5.17353C12.7968 5.48764 12.7952 5.50982 12.7785 7.11129L12.7617 8.73129H0.716101L0.480469 8.96692V20.3997L0.716101 20.6353H23.2848L23.5205 20.3997V8.96692L23.4026 8.84913C23.3062 8.7527 23.2371 8.73129 23.022 8.73129H22.7593L22.7424 7.11129C22.7257 5.50982 22.7241 5.48764 22.6032 5.17353C22.4289 4.72079 22.2552 4.44412 21.9594 4.14835C20.804 2.99294 18.9013 3.13828 17.8892 4.45929L17.7605 4.62729L17.6317 4.45929C17.1013 3.76704 16.2468 3.34411 15.4116 3.36057C15.2647 3.36345 15.0581 3.38304 14.9525 3.40411ZM16.2451 4.30665C16.678 4.50926 16.9584 4.78497 17.1732 5.21942L17.3525 5.58196L17.3824 8.73129H16.6085V7.30886C16.6085 6.34876 16.5899 5.82451 16.5514 5.69596C16.52 5.59123 16.401 5.40167 16.2868 5.27472C15.9752 4.92811 15.5603 4.81425 15.102 4.94966C14.8384 5.02756 14.4407 5.42519 14.3628 5.68886C14.3189 5.83766 14.3045 6.9718 14.3045 10.2849V14.6833H14.0705C13.9418 14.6833 13.7685 14.6697 13.6853 14.6531L13.5341 14.6228L13.5605 5.58729L13.7124 5.26665C13.9053 4.85952 14.1799 4.56148 14.538 4.37059C14.9161 4.16908 15.123 4.12348 15.5644 4.14451C15.8525 4.15824 16.006 4.19476 16.2451 4.30665ZM20.8531 4.30665C21.286 4.50926 21.5664 4.78497 21.7812 5.21942L21.9605 5.58196L21.9904 8.73129H21.2165V7.30886C21.2165 6.34876 21.1979 5.82451 21.1594 5.69596C21.128 5.59123 21.009 5.40167 20.8948 5.27472C20.5832 4.92811 20.1683 4.81425 19.71 4.94966C19.4464 5.02756 19.0487 5.42519 18.9708 5.68886C18.9271 5.83689 18.9125 6.86865 18.9125 9.80486V13.7233H18.1419L18.1685 5.58729L18.3204 5.26665C18.5133 4.85952 18.7879 4.56148 19.146 4.37059C19.5241 4.16908 19.731 4.12348 20.1724 4.14451C20.4605 4.15824 20.614 4.19476 20.8531 4.30665ZM15.7226 5.77713L15.8405 5.89492V8.73129H15.0725V5.89492L15.1903 5.77713C15.2646 5.70283 15.363 5.65929 15.4565 5.65929C15.55 5.65929 15.6484 5.70283 15.7226 5.77713ZM20.3306 5.77713L20.4485 5.89492V8.73129H19.6805V5.89492L19.7983 5.77713C19.8726 5.70283 19.971 5.65929 20.0645 5.65929C20.158 5.65929 20.2564 5.70283 20.3306 5.77713ZM12.7685 10.2673H1.24847V9.49929H12.7685V10.2673ZM17.3765 10.2673H15.0725V9.49929H17.3765V10.2673ZM22.7525 10.2673H19.6805V9.49929H22.7525V10.2673ZM12.7685 14.4839L12.1324 14.2261C11.0835 13.801 10.4772 13.691 9.45647 13.7406C8.71405 13.7767 8.24264 13.8883 7.42578 14.2213C6.46568 14.6128 6.25736 14.6559 5.32847 14.6551C4.39962 14.6542 4.16807 14.6081 3.26941 14.245C2.93668 14.1105 2.56727 13.9701 2.44847 13.9329C2.27226 13.8777 1.42093 13.7246 1.28447 13.7236C1.26464 13.7234 1.24847 13.1185 1.24847 12.3793V11.0353H12.7685V14.4839ZM17.3765 11.8033H15.0725V11.0353H17.3765V11.8033ZM22.7525 14.6844L22.5485 14.6563C22.0189 14.5831 21.7617 14.5095 21.0485 14.2268C20.6261 14.0594 20.1455 13.8949 19.9805 13.8613L19.6805 13.8001V11.0353H22.7525V14.6844ZM2.13431 11.9211C1.89618 12.1592 2.0649 12.5713 2.40047 12.5713C2.5978 12.5713 2.78447 12.3846 2.78447 12.1873C2.78447 11.99 2.5978 11.8033 2.40047 11.8033C2.30696 11.8033 2.20856 11.8468 2.13431 11.9211ZM5.59031 11.9211C5.35218 12.1592 5.5209 12.5713 5.85647 12.5713C6.0538 12.5713 6.24047 12.3846 6.24047 12.1873C6.24047 11.99 6.0538 11.8033 5.85647 11.8033C5.76296 11.8033 5.66457 11.8468 5.59031 11.9211ZM9.81431 11.9211C9.57618 12.1592 9.7449 12.5713 10.0805 12.5713C10.2778 12.5713 10.4645 12.3846 10.4645 12.1873C10.4645 11.99 10.2778 11.8033 10.0805 11.8033C9.98697 11.8033 9.88857 11.8468 9.81431 11.9211ZM20.5663 11.9211C20.492 11.9954 20.4485 12.0938 20.4485 12.1873C20.4485 12.2808 20.492 12.3792 20.5663 12.4535C20.6406 12.5278 20.739 12.5713 20.8325 12.5713C20.926 12.5713 21.0244 12.5278 21.0986 12.4535C21.1729 12.3792 21.2165 12.2808 21.2165 12.1873C21.2165 12.0938 21.1729 11.9954 21.0986 11.9211C21.0244 11.8468 20.926 11.8033 20.8325 11.8033C20.739 11.8033 20.6406 11.8468 20.5663 11.9211ZM7.51031 12.3051C7.27218 12.5432 7.4409 12.9553 7.77647 12.9553C7.9738 12.9553 8.16047 12.7686 8.16047 12.5713C8.16047 12.374 7.9738 12.1873 7.77647 12.1873C7.68296 12.1873 7.58456 12.2308 7.51031 12.3051ZM3.67031 12.6891C3.43218 12.9272 3.6009 13.3393 3.93647 13.3393C4.1338 13.3393 4.32047 13.1526 4.32047 12.9553C4.32047 12.758 4.1338 12.5713 3.93647 12.5713C3.84296 12.5713 3.74456 12.6148 3.67031 12.6891ZM11.3503 12.6891C11.1122 12.9272 11.2809 13.3393 11.6165 13.3393C11.8138 13.3393 12.0005 13.1526 12.0005 12.9553C12.0005 12.758 11.8138 12.5713 11.6165 12.5713C11.523 12.5713 11.4246 12.6148 11.3503 12.6891ZM17.3765 13.3393H15.0725V12.5713H17.3765V13.3393ZM21.3343 13.0731C21.26 13.1474 21.2165 13.2458 21.2165 13.3393C21.2165 13.4328 21.26 13.5312 21.3343 13.6055C21.4086 13.6798 21.507 13.7233 21.6005 13.7233C21.694 13.7233 21.7924 13.6798 21.8666 13.6055C21.9409 13.5312 21.9845 13.4328 21.9845 13.3393C21.9845 13.2458 21.9409 13.1474 21.8666 13.0731C21.7924 12.9988 21.694 12.9553 21.6005 12.9553C21.507 12.9553 21.4086 12.9988 21.3343 13.0731ZM5.59031 13.4571C5.35218 13.6952 5.5209 14.1073 5.85647 14.1073C6.0538 14.1073 6.24047 13.9206 6.24047 13.7233C6.24047 13.526 6.0538 13.3393 5.85647 13.3393C5.76296 13.3393 5.66457 13.3828 5.59031 13.4571ZM16.5565 14.1252C16.4942 14.1812 15.6252 14.4978 15.3717 14.557L15.0725 14.6268V14.1073H15.8245C16.2381 14.1073 16.5675 14.1154 16.5565 14.1252ZM1.92047 14.595C2.06567 14.6216 2.53007 14.7803 2.95247 14.9477C3.84128 15.2999 4.27386 15.4013 5.04047 15.4371C6.01242 15.4824 6.62389 15.3688 7.69228 14.9442C8.65496 14.5617 8.85959 14.5203 9.79247 14.5199C10.7124 14.5196 10.8709 14.5523 11.8584 14.9473C12.9294 15.3756 13.5248 15.4835 14.5445 15.434C15.2951 15.3975 15.7404 15.2903 16.6414 14.9293C17.5769 14.5545 17.7684 14.5162 18.6965 14.5188C19.5993 14.5214 19.8432 14.5707 20.7315 14.9296C21.0643 15.0641 21.4337 15.2045 21.5525 15.2417C21.7287 15.2969 22.58 15.4499 22.7165 15.451C22.7363 15.4511 22.7525 15.7107 22.7525 16.0279V16.6044L22.5485 16.5763C22.0189 16.5031 21.7617 16.4295 21.0485 16.1469C20.6261 15.9795 20.1077 15.8067 19.8965 15.7629C19.0962 15.597 17.8909 15.6224 17.2153 15.8195C17.0795 15.8592 16.675 16.008 16.3162 16.1503C15.3573 16.5307 15.1411 16.5743 14.2085 16.5746C13.2887 16.575 13.1303 16.5422 12.1445 16.1471C11.0793 15.7201 10.4763 15.611 9.45647 15.6606C8.71405 15.6967 8.24264 15.8083 7.42578 16.1413C6.46568 16.5328 6.25736 16.5759 5.32847 16.5751C4.39962 16.5742 4.16807 16.5281 3.26941 16.165C2.93668 16.0305 2.56727 15.8901 2.44847 15.8529C2.27226 15.7977 1.42093 15.6446 1.28447 15.6436C1.26464 15.6434 1.24847 15.3839 1.24847 15.0667V14.4901L1.45247 14.5183C1.56464 14.5338 1.77527 14.5683 1.92047 14.595ZM1.92047 16.515C2.06567 16.5416 2.53007 16.7003 2.95247 16.8677C3.84128 17.2199 4.27386 17.3213 5.04047 17.3571C6.01242 17.4024 6.62389 17.2888 7.69228 16.8642C8.65496 16.4817 8.85959 16.4403 9.79247 16.4399C10.7124 16.4396 10.8709 16.4723 11.8584 16.8673C12.9294 17.2956 13.5248 17.4035 14.5445 17.354C15.2951 17.3175 15.7404 17.2103 16.6414 16.8493C17.5769 16.4745 17.7684 16.4362 18.6965 16.4388C19.5993 16.4414 19.8432 16.4907 20.7315 16.8496C21.0643 16.9841 21.4337 17.1245 21.5525 17.1617C21.7287 17.2169 22.58 17.3699 22.7165 17.371C22.7363 17.3711 22.7525 17.6307 22.7525 17.9479V18.5244L22.5485 18.4963C22.0189 18.4231 21.7617 18.3495 21.0485 18.0669C20.6261 17.8995 20.1077 17.7267 19.8965 17.6829C19.0962 17.517 17.8909 17.5424 17.2153 17.7395C17.0795 17.7792 16.675 17.928 16.3162 18.0703C15.3573 18.4507 15.1411 18.4943 14.2085 18.4946C13.2887 18.495 13.1303 18.4622 12.1445 18.0671C11.0793 17.6401 10.4763 17.531 9.45647 17.5806C8.71405 17.6167 8.24264 17.7283 7.42578 18.0613C6.46568 18.4528 6.25736 18.4959 5.32847 18.4951C4.39962 18.4942 4.16807 18.4481 3.26941 18.085C2.93668 17.9505 2.56727 17.8101 2.44847 17.7729C2.27226 17.7177 1.42093 17.5646 1.28447 17.5636C1.26464 17.5634 1.24847 17.3039 1.24847 16.9867V16.4101L1.45247 16.4383C1.56464 16.4538 1.77527 16.4883 1.92047 16.515ZM1.92047 18.435C2.06567 18.4616 2.53007 18.6203 2.95247 18.7877C3.84128 19.1399 4.27386 19.2413 5.04047 19.2771C6.01242 19.3224 6.62389 19.2088 7.69228 18.7842C8.65496 18.4017 8.85959 18.3603 9.79247 18.3599C10.7124 18.3596 10.8709 18.3923 11.8584 18.7873C12.9294 19.2156 13.5248 19.3235 14.5445 19.274C15.2951 19.2375 15.7404 19.1303 16.6414 18.7693C17.5769 18.3945 17.7684 18.3562 18.6965 18.3588C19.5993 18.3614 19.8432 18.4107 20.7315 18.7696C21.0643 18.9041 21.4337 19.0445 21.5525 19.0817C21.7287 19.1369 22.58 19.2899 22.7165 19.291C22.7363 19.2911 22.7525 19.4209 22.7525 19.5793V19.8673H1.24847V18.3301L1.45247 18.3583C1.56464 18.3738 1.77527 18.4083 1.92047 18.435Z" fill="#2A220E"/>
</svg>
