<svg width="23" height="17" viewBox="0 0 23 17" fill="none" xmlns="http://www.w3.org/2000/svg">
<g clip-path="url(#clip0_18134_1391)">
<path d="M8 8.10889C8.79113 8.10889 9.56449 7.87429 10.2223 7.43477C10.8801 6.99524 11.3928 6.37053 11.6955 5.63962C11.9983 4.90872 12.0775 4.10445 11.9231 3.32853C11.7688 2.5526 11.3878 1.83987 10.8284 1.28046C10.269 0.721051 9.55629 0.340088 8.78036 0.185747C8.00444 0.0314065 7.20017 0.11062 6.46927 0.41337C5.73836 0.716121 5.11365 1.22881 4.67412 1.88661C4.2346 2.5444 4 3.31776 4 4.10889C4.00106 5.16943 4.42283 6.18623 5.17274 6.93615C5.92266 7.68606 6.93946 8.10783 8 8.10889ZM8 1.44222C8.52742 1.44222 9.04299 1.59862 9.48152 1.89164C9.92005 2.18465 10.2618 2.60113 10.4637 3.0884C10.6655 3.57567 10.7183 4.11185 10.6154 4.62913C10.5125 5.14641 10.2586 5.62157 9.88562 5.99451C9.51268 6.36745 9.03752 6.62142 8.52024 6.72432C8.00296 6.82721 7.46678 6.7744 6.97951 6.57257C6.49224 6.37073 6.07576 6.02894 5.78275 5.59041C5.48973 5.15188 5.33333 4.63631 5.33333 4.10889C5.33333 3.40164 5.61428 2.72337 6.11438 2.22327C6.61448 1.72317 7.29276 1.44222 8 1.44222Z" fill="#376576"/>
<path d="M8 9.44189C6.4093 9.44384 4.8843 10.0766 3.7595 11.2014C2.6347 12.3262 2.00194 13.8512 2 15.4419C2 15.6187 2.07024 15.7883 2.19526 15.9133C2.32029 16.0383 2.48986 16.1085 2.66667 16.1085C2.84348 16.1085 3.01305 16.0383 3.13807 15.9133C3.2631 15.7883 3.33333 15.6187 3.33333 15.4419C3.33333 14.2042 3.825 13.0172 4.70017 12.1421C5.57534 11.2669 6.76232 10.7752 8 10.7752C9.23768 10.7752 10.4247 11.2669 11.2998 12.1421C12.175 13.0172 12.6667 14.2042 12.6667 15.4419C12.6667 15.6187 12.7369 15.7883 12.8619 15.9133C12.987 16.0383 13.1565 16.1085 13.3333 16.1085C13.5101 16.1085 13.6797 16.0383 13.8047 15.9133C13.9298 15.7883 14 15.6187 14 15.4419C13.9981 13.8512 13.3653 12.3262 12.2405 11.2014C11.1157 10.0766 9.5907 9.44384 8 9.44189Z" fill="#376576"/>
</g>
<g clip-path="url(#clip1_18134_1391)">
<path d="M17 10.1089C17.5933 10.1089 18.1734 9.93294 18.6667 9.6033C19.1601 9.27365 19.5446 8.80512 19.7716 8.25694C19.9987 7.70876 20.0581 7.10556 19.9424 6.52362C19.8266 5.94167 19.5409 5.40713 19.1213 4.98757C18.7018 4.56801 18.1672 4.28229 17.5853 4.16653C17.0033 4.05078 16.4001 4.11019 15.8519 4.33725C15.3038 4.56431 14.8352 4.94883 14.5056 5.44218C14.1759 5.93552 14 6.51554 14 7.10889C14.0008 7.90429 14.3171 8.66689 14.8796 9.22933C15.442 9.79177 16.2046 10.1081 17 10.1089ZM17 5.10889C17.3956 5.10889 17.7822 5.22619 18.1111 5.44595C18.44 5.66571 18.6964 5.97807 18.8478 6.34352C18.9991 6.70897 19.0387 7.11111 18.9616 7.49907C18.8844 7.88703 18.6939 8.2434 18.4142 8.5231C18.1345 8.80281 17.7781 8.99329 17.3902 9.07046C17.0022 9.14763 16.6001 9.10802 16.2346 8.95665C15.8692 8.80527 15.5568 8.54893 15.3371 8.22003C15.1173 7.89113 15 7.50445 15 7.10889C15 6.57846 15.2107 6.06975 15.5858 5.69467C15.9609 5.3196 16.4696 5.10889 17 5.10889Z" fill="#376576"/>
<path d="M17 11.1086C15.807 11.1101 14.6632 11.5847 13.8196 12.4283C12.976 13.2719 12.5015 14.4156 12.5 15.6086C12.5 15.7412 12.5527 15.8684 12.6464 15.9622C12.7402 16.056 12.8674 16.1086 13 16.1086C13.1326 16.1086 13.2598 16.056 13.3536 15.9622C13.4473 15.8684 13.5 15.7412 13.5 15.6086C13.5 14.6804 13.8687 13.7901 14.5251 13.1338C15.1815 12.4774 16.0717 12.1086 17 12.1086C17.9283 12.1086 18.8185 12.4774 19.4749 13.1338C20.1313 13.7901 20.5 14.6804 20.5 15.6086C20.5 15.7412 20.5527 15.8684 20.6464 15.9622C20.7402 16.056 20.8674 16.1086 21 16.1086C21.1326 16.1086 21.2598 16.056 21.3536 15.9622C21.4473 15.8684 21.5 15.7412 21.5 15.6086C21.4985 14.4156 21.024 13.2719 20.1804 12.4283C19.3368 11.5847 18.193 11.1101 17 11.1086Z" fill="#376576"/>
</g>
<defs>
<clipPath id="clip0_18134_1391">
<rect width="16" height="16" fill="white" transform="translate(0 0.108887)"/>
</clipPath>
<clipPath id="clip1_18134_1391">
<rect width="12" height="12" fill="white" transform="translate(11 4.10889)"/>
</clipPath>
</defs>
</svg>
