<svg width="154" height="62" viewBox="0 0 154 62" fill="none" xmlns="http://www.w3.org/2000/svg">
<path d="M63.5137 26.2848H70.5621V32.9723C68.9746 34.6317 66.4012 35.6661 63.9949 35.6661C59.2559 35.6661 55.2637 31.7457 55.2637 27.1035C55.2637 22.4613 59.2574 18.5645 63.9949 18.5645C66.3996 18.5645 68.9746 19.5754 70.5621 21.2348L68.4215 23.2317C67.3871 22.0285 65.6074 21.3066 63.9949 21.3066C60.9152 21.3066 58.3184 23.952 58.3184 27.1035C58.3184 30.2785 60.9168 32.9239 63.9949 32.9239C65.2449 32.9239 66.5918 32.491 67.6278 31.7457V28.7395H63.5137V26.2848Z" fill="#376576"/>
<path d="M83.8641 27.4629V35.377H81.025V28.041C81.025 26.3567 79.9422 25.1551 78.4032 25.1551C76.7438 25.1551 75.3719 26.3582 75.3719 27.8488V35.377H72.4375V17.6113L75.3719 18.5629V24.6488C76.1172 23.4457 77.5844 22.652 79.2438 22.652C81.9641 22.652 83.8641 24.6488 83.8641 27.4629Z" fill="#376576"/>
<path d="M97.1887 22.941V35.377H94.2543V33.7176C93.484 34.8723 92.0418 35.666 90.4059 35.666C87.6871 35.666 85.7871 33.6692 85.7871 30.8551V22.941H88.6262V30.277C88.6262 31.9613 89.709 33.1629 91.2481 33.1629C92.7871 33.1629 94.0621 32.1285 94.2543 30.8051V22.9395H97.1887V22.941Z" fill="#376576"/>
<path d="M111.597 18.5621V35.3762H108.663V33.4512C107.677 34.8465 106.186 35.6637 104.356 35.6637C101.061 35.6637 98.6562 32.9699 98.6562 29.1449C98.6562 25.3449 101.061 22.6496 104.356 22.6496C106.184 22.6496 107.675 23.4668 108.663 24.8621V17.6074L111.597 18.5621ZM108.663 29.1465C108.663 26.8137 107.219 25.1527 105.15 25.1527C103.058 25.1527 101.566 26.8121 101.566 29.1465C101.566 31.4793 103.056 33.1637 105.15 33.1637C107.219 33.1637 108.663 31.4793 108.663 29.1465Z" fill="#376576"/>
<path d="M126.076 18.5621V35.3762H123.141V33.4512C122.155 34.8465 120.665 35.6637 118.835 35.6637C115.539 35.6637 113.135 32.9699 113.135 29.1449C113.135 25.3449 115.539 22.6496 118.835 22.6496C120.663 22.6496 122.154 23.4668 123.141 24.8621V17.6074L126.076 18.5621ZM123.141 29.1465C123.141 26.8137 121.697 25.1527 119.629 25.1527C117.536 25.1527 116.044 26.8121 116.044 29.1465C116.044 31.4793 117.535 33.1637 119.629 33.1637C121.697 33.1637 123.141 31.4793 123.141 29.1465Z" fill="#376576"/>
<path d="M128.324 39.0551L128.949 36.9379C129.479 37.227 130.079 37.3957 130.536 37.3957C131.235 37.3957 131.763 37.1786 132.124 36.5786L132.654 35.4723L127.385 22.9395H130.488L134.121 32.2239L137.536 22.9395H140.568L135.3 36.241C134.363 38.5989 132.919 39.6801 131.043 39.7051C130.104 39.7051 129.069 39.4645 128.324 39.0551Z" fill="#376576"/>
<path d="M46.2641 27.1313L31.1328 12L16 27.1313L27.5078 38.6392L23.5656 43.2048H38.6985L34.7563 38.6392L46.2641 27.1313ZM42.5282 28.1063L33.4782 37.1563L32.1078 35.5704V28.1063H42.5282ZM42.5282 26.1547H32.1078V15.7344L42.5282 26.1547ZM27.8297 41.2517L31.1328 37.4267L34.436 41.2517H27.8297ZM30.1563 35.572L28.786 37.1579L19.7359 28.1079H30.1563V35.572ZM19.7359 26.1547L30.1563 15.7344V26.1547H19.7359Z" fill="#376576"/>
</svg>
