<svg width="24" height="20" viewBox="0 0 24 20" fill="none" xmlns="http://www.w3.org/2000/svg">
<path d="M10.45 11.5C10.85 11.9 11.3667 12.0957 12 12.087C12.6333 12.079 13.1 11.85 13.4 11.4L17.625 5.075C17.775 4.84167 17.754 4.62933 17.562 4.438C17.3707 4.246 17.1583 4.225 16.925 4.375L10.6 8.6C10.15 8.9 9.91267 9.35833 9.888 9.975C9.86267 10.5917 10.05 11.1 10.45 11.5ZM5.1 16C4.75 16 4.41667 15.9167 4.1 15.75C3.78333 15.5833 3.53333 15.35 3.35 15.05C2.91667 14.3 2.58333 13.5043 2.35 12.663C2.11667 11.821 2 10.9333 2 10C2 8.61667 2.26267 7.32067 2.788 6.112C3.31267 4.904 4.02933 3.84567 4.938 2.937C5.846 2.029 6.90833 1.31233 8.125 0.787C9.34167 0.262334 10.6333 0 12 0C12.75 0 13.475 0.079 14.175 0.237C14.875 0.395667 15.55 0.633333 16.2 0.95C16.55 1.13333 16.754 1.38333 16.812 1.7C16.8707 2.01667 16.7833 2.31667 16.55 2.6C16.4167 2.75 16.2333 2.84167 16 2.875C15.7667 2.90833 15.5583 2.88333 15.375 2.8C14.8417 2.53333 14.2917 2.33333 13.725 2.2C13.1583 2.06667 12.5833 2 12 2C9.78333 2 7.896 2.779 6.338 4.337C4.77933 5.89567 4 7.78333 4 10C4 10.7 4.09567 11.3917 4.287 12.075C4.479 12.7583 4.75 13.4 5.1 14H18.9C19.2833 13.3667 19.5627 12.7083 19.738 12.025C19.9127 11.3417 20 10.6333 20 9.9C20 9.31667 19.9293 8.746 19.788 8.188C19.646 7.62933 19.4417 7.09167 19.175 6.575C19.0583 6.35833 19.025 6.13333 19.075 5.9C19.125 5.66667 19.2417 5.475 19.425 5.325C19.6917 5.09167 19.9833 5.025 20.3 5.125C20.6167 5.225 20.85 5.44167 21 5.775C21.3 6.40833 21.5333 7.06267 21.7 7.738C21.8667 8.41267 21.9667 9.11667 22 9.85C22 10.8 21.8877 11.7083 21.663 12.575C21.4377 13.4417 21.1 14.2667 20.65 15.05C20.4667 15.35 20.2167 15.5833 19.9 15.75C19.5833 15.9167 19.25 16 18.9 16H5.1Z" fill="#4E90A8"/>
</svg>
