<svg width="24" height="24" viewBox="0 0 24 24" fill="none" xmlns="http://www.w3.org/2000/svg">
<path d="M8.60068 14.1199L13.1907 18.7099C13.378 18.8962 13.6315 19.0007 13.8957 19.0007C14.1599 19.0007 14.4133 18.8962 14.6007 18.7099C14.6944 18.617 14.7688 18.5064 14.8196 18.3845C14.8703 18.2627 14.8965 18.132 14.8965 17.9999C14.8965 17.8679 14.8703 17.7372 14.8196 17.6154C14.7688 17.4935 14.6944 17.3829 14.6007 17.2899L10.0007 12.7099C9.90696 12.617 9.83256 12.5064 9.78179 12.3845C9.73102 12.2627 9.70489 12.132 9.70489 11.9999C9.70489 11.8679 9.73102 11.7372 9.78179 11.6154C9.83256 11.4935 9.90696 11.3829 10.0007 11.2899L14.6007 6.70994C14.789 6.52296 14.8953 6.26884 14.8962 6.00347C14.8972 5.73811 14.7927 5.48324 14.6057 5.29494C14.4187 5.10663 14.1646 5.00032 13.8992 4.99938C13.6339 4.99844 13.379 5.10296 13.1907 5.28994L8.60068 9.87994C8.03888 10.4424 7.72332 11.2049 7.72332 11.9999C7.72332 12.7949 8.03888 13.5574 8.60068 14.1199V14.1199Z" fill="#2A220E"/>
</svg>
