<svg width="10" height="10" viewBox="0 0 10 10" fill="none" xmlns="http://www.w3.org/2000/svg">
<path d="M3.80467 9.89869C3.50017 9.89869 3.21177 9.75659 3.02697 9.51159L0.525875 6.2069C0.448548 6.10484 0.392095 5.98854 0.359742 5.86465C0.327389 5.74076 0.319771 5.61171 0.337324 5.48487C0.354877 5.35804 0.397256 5.23591 0.462039 5.12546C0.526821 5.01501 0.612737 4.91842 0.714875 4.84119C0.816976 4.76365 0.933376 4.70702 1.0574 4.67455C1.18143 4.64207 1.31065 4.63439 1.43765 4.65195C1.56465 4.66951 1.68694 4.71196 1.79751 4.77686C1.90807 4.84177 2.00474 4.92786 2.08197 5.0302L3.72767 7.203L7.86538 0.558595C8.0026 0.339215 8.22123 0.183218 8.47332 0.124822C8.72541 0.0664256 8.99037 0.110399 9.21008 0.247095C9.66718 0.531295 9.80787 1.1333 9.52227 1.5911L4.63347 9.4381C4.55002 9.57265 4.43499 9.6848 4.29837 9.76482C4.16174 9.84485 4.00765 9.89032 3.84947 9.89729C3.83407 9.89869 3.82007 9.89869 3.80467 9.89869Z" fill="#4E90A8"/>
</svg>
