<svg width="24" height="24" viewBox="0 0 24 24" fill="none" xmlns="http://www.w3.org/2000/svg">
<path fill-rule="evenodd" clip-rule="evenodd" d="M11.3409 2.1818C11.2761 2.2466 11.2231 2.3546 11.2231 2.4218C11.2231 2.51032 11.1977 2.54396 11.1308 2.54396C11.0801 2.54396 10.8488 2.60852 10.6169 2.68739C9.47928 3.07432 8.51012 3.99923 8.06684 5.12094C7.40948 6.78438 7.90268 8.75867 9.25709 9.88585L9.52733 10.1107L9.1392 10.1665C8.0246 10.3265 7.09479 11.2193 6.87984 12.336C6.84168 12.534 6.74439 13.5276 6.6636 14.544C6.58277 15.5604 6.50645 16.4568 6.49402 16.536C6.4717 16.6779 6.46772 16.6797 6.21116 16.6637C5.64279 16.6283 4.98874 16.8832 4.57508 17.3014C3.38136 18.508 3.9385 20.5216 5.58476 20.9504C5.81684 21.0109 6.2268 21.024 7.88242 21.024H9.8976L10.3854 21.504C10.7572 21.8699 10.9036 21.984 11.0011 21.984C11.0714 21.984 11.323 21.8865 11.56 21.7675L11.9911 21.551L12.4221 21.7675C12.6592 21.8865 12.9107 21.984 12.9811 21.984C13.0786 21.984 13.225 21.8699 13.5968 21.504L14.0845 21.024H16.0997C18.2938 21.024 18.43 21.0106 18.9235 20.7464C19.4483 20.4654 19.8829 19.8703 20.0099 19.2585C20.1793 18.4431 19.798 17.517 19.1017 17.052C18.694 16.7798 18.3843 16.6838 17.9072 16.6817L17.5114 16.68L17.4884 16.536C17.4758 16.4568 17.3994 15.5604 17.3185 14.544C17.2378 13.5276 17.1405 12.534 17.1023 12.336C16.8869 11.2169 15.9601 10.3269 14.8429 10.1665L14.4548 10.1107L14.7251 9.88585C15.3784 9.34211 15.8571 8.56388 16.0992 7.65193C16.2221 7.18892 16.2221 6.155 16.0992 5.692C15.8091 4.59923 15.1377 3.66025 14.2584 3.11776L13.9119 2.90396L13.9115 2.6018C13.9111 2.34524 13.8933 2.28179 13.7932 2.1818C13.5537 1.94224 13.1431 2.11249 13.1431 2.45137C13.1431 2.58572 13.1307 2.59969 13.0351 2.57291C12.9757 2.55625 12.7165 2.5166 12.4591 2.48478C12.1315 2.44427 11.9911 2.40779 11.9911 2.36324C11.9911 2.24305 11.7613 2.06396 11.6071 2.06396C11.5136 2.06396 11.4152 2.1075 11.3409 2.1818ZM12.6277 3.2823C12.8062 3.31686 12.9648 3.35761 12.98 3.37292C13.0381 3.43096 12.5936 3.84313 12.3472 3.95973C12.0733 4.08928 11.9911 4.18888 11.9911 4.39101C11.9911 4.55224 12.1907 4.75196 12.3518 4.75196C12.6709 4.75196 13.2623 4.34805 13.5355 3.94365C13.6186 3.82062 13.6931 3.7118 13.701 3.70177C13.7382 3.65488 14.214 4.01569 14.4693 4.2843C14.9623 4.80309 15.2485 5.35451 15.3791 6.03716C15.6401 7.40128 15.0484 8.78397 13.873 9.55652C12.7944 10.2655 11.4285 10.3088 10.2791 9.67057C9.84768 9.431 9.23204 8.81536 8.99247 8.38398C8.09967 6.77627 8.57612 4.8027 10.1005 3.79441C10.4368 3.57193 11.0087 3.32156 11.061 3.37388C11.1183 3.43115 10.6715 3.84414 10.4272 3.95973C10.0499 4.13819 9.95674 4.402 10.1889 4.63412C10.3383 4.7836 10.4917 4.78288 10.812 4.63134C11.2933 4.40368 11.7044 3.94297 11.8761 3.43892C11.9482 3.22753 11.9612 3.21606 12.1276 3.21774C12.2241 3.2187 12.4491 3.24774 12.6277 3.2823ZM10.1076 5.71494C9.90495 5.82193 9.73508 6.10513 9.73508 6.33596C9.73508 6.57414 9.90485 6.85067 10.1178 6.95934C10.222 7.01248 10.3738 7.05596 10.4551 7.05596C10.8203 7.05596 11.1751 6.7012 11.1751 6.33596C11.1751 6.09779 11.0053 5.82126 10.7923 5.71259C10.5558 5.59196 10.3392 5.59268 10.1076 5.71494ZM13.1316 5.71494C12.9289 5.82193 12.7591 6.10513 12.7591 6.33596C12.7591 6.41728 12.8026 6.56905 12.8557 6.67321C12.9644 6.88619 13.2409 7.05596 13.4791 7.05596C13.8443 7.05596 14.1991 6.7012 14.1991 6.33596C14.1991 6.09779 14.0293 5.82126 13.8163 5.71259C13.5798 5.59196 13.3632 5.59268 13.1316 5.71494ZM10.9618 7.55286C10.8022 7.71251 10.799 7.93225 10.9541 8.08734C11.3232 8.45641 12.659 8.45641 13.028 8.08734C13.1832 7.93225 13.18 7.71251 13.0203 7.55286C12.8831 7.41563 12.8147 7.41702 12.2911 7.5676C12.0023 7.65068 11.9798 7.65068 11.6911 7.5676C11.1675 7.41702 11.099 7.41563 10.9618 7.55286ZM15.2178 11.0728C15.8211 11.3586 16.242 11.8879 16.3558 12.504C16.385 12.6624 16.4729 13.5804 16.551 14.544C16.6291 15.5076 16.7053 16.4059 16.7205 16.5402L16.7481 16.7845L16.2536 16.8424C15.9816 16.8742 15.6889 16.9125 15.6031 16.9275L15.4471 16.9547V15.1951V13.4356L15.3292 13.3178C15.255 13.2435 15.1566 13.2 15.0631 13.2C14.9696 13.2 14.8712 13.2435 14.7969 13.3178C14.6834 13.4313 14.6791 13.4595 14.6791 14.0858V14.736H11.9911H9.30308V14.0858C9.30308 13.4595 9.29876 13.4313 9.18524 13.3178C9.11098 13.2435 9.01258 13.2 8.91908 13.2C8.82557 13.2 8.72717 13.2435 8.65292 13.3178L8.53508 13.4356V15.1958V16.956L8.40173 16.9293C8.32839 16.9146 8.0352 16.8764 7.75018 16.8443L7.23197 16.786L7.25909 16.565C7.27397 16.4434 7.35197 15.534 7.43242 14.544C7.51282 13.554 7.59845 12.6317 7.62274 12.4945C7.74696 11.7925 8.38906 11.1171 9.09274 10.9484C9.19877 10.923 10.489 10.9072 12.0871 10.9119L14.8951 10.92L15.2178 11.0728ZM10.0711 15.7701C10.0711 16.0904 10.21 16.272 10.4551 16.272C10.7002 16.272 10.8391 16.0904 10.8391 15.7701V15.504H11.2231H11.6071V15.7701C11.6071 16.0904 11.746 16.272 11.9911 16.272C12.2362 16.272 12.3751 16.0904 12.3751 15.7701V15.504H12.7591H13.1431V15.7701C13.1431 16.0904 13.282 16.272 13.5271 16.272C13.7722 16.272 13.9111 16.0904 13.9111 15.7701V15.504H14.2951H14.6791V16.2677V17.0315L14.4991 17.0596C14.4001 17.0751 13.7963 17.1529 13.1574 17.2324L11.9957 17.377L10.6651 17.2085C9.93327 17.1158 9.32741 17.04 9.31877 17.04C9.31013 17.04 9.30308 16.6944 9.30308 16.272V15.504H9.68708H10.0711V15.7701ZM8.88471 17.76C10.3656 17.9448 11.584 18.096 11.5922 18.096C11.6004 18.096 11.6071 18.722 11.6071 19.4871V20.8783L11.3603 21.0034L11.1135 21.1285L10.6873 20.7042L10.2612 20.28L7.99412 20.256C5.72756 20.232 5.72703 20.232 5.51108 20.1188C5.21602 19.9642 4.99858 19.7496 4.84772 19.464C4.67228 19.1318 4.66546 18.5623 4.83308 18.24C5.08229 17.7608 5.55538 17.4403 6.03159 17.4281C6.11991 17.4258 7.40376 17.5752 8.88471 17.76ZM18.4711 17.5659C18.7623 17.7121 18.9819 17.9272 19.1344 18.216C19.2409 18.4175 19.2612 18.5175 19.2612 18.84C19.2612 19.1625 19.2409 19.2624 19.1344 19.464C18.9836 19.7496 18.7661 19.9642 18.4711 20.1188C18.2551 20.232 18.2546 20.232 15.988 20.256L13.7209 20.28L13.2948 20.7042L12.8687 21.1285L12.6218 21.0034L12.3751 20.8783V19.4871C12.3751 18.4074 12.3885 18.0955 12.4351 18.0938C12.4681 18.0925 13.6507 17.9425 15.0631 17.7603C16.6105 17.5607 17.7551 17.4347 17.9431 17.4433C18.1477 17.4527 18.3294 17.4949 18.4711 17.5659Z" fill="#2A220E"/>
</svg>
