<svg width="15" height="15" viewBox="0 0 15 15" fill="none" xmlns="http://www.w3.org/2000/svg">
<path d="M14.1126 5.55057L9.74064 4.91518L7.78624 0.952996C7.73286 0.844514 7.64504 0.756695 7.53656 0.703315C7.26449 0.569004 6.93388 0.68093 6.79785 0.952996L4.84345 4.91518L0.47144 5.55057C0.350905 5.56779 0.2407 5.62462 0.156325 5.71071C0.0543205 5.81556 -0.00188881 5.95661 4.84656e-05 6.10287C0.00198574 6.24913 0.0619111 6.38865 0.166657 6.49075L3.32986 9.57474L2.58254 13.9295C2.56501 14.0308 2.57622 14.135 2.6149 14.2303C2.65357 14.3255 2.71816 14.408 2.80134 14.4685C2.88453 14.5289 2.98297 14.5648 3.08552 14.5721C3.18806 14.5794 3.29061 14.5578 3.38152 14.5098L7.29205 12.4538L11.2026 14.5098C11.3093 14.5666 11.4333 14.5856 11.5521 14.5649C11.8517 14.5133 12.0532 14.2291 12.0016 13.9295L11.2542 9.57474L14.4174 6.49075C14.5035 6.40638 14.5604 6.29617 14.5776 6.17564C14.6241 5.8743 14.414 5.59534 14.1126 5.55057Z" fill="#FEE29A"/>
</svg>
