<svg width="92" height="92" viewBox="0 0 92 92" fill="none" xmlns="http://www.w3.org/2000/svg">
<g filter="url(#filter0_d_18040_94099)">
<rect x="19" y="16" width="60" height="60" rx="8" fill="#FEFCF5" shape-rendering="crispEdges"/>
<g clip-path="url(#clip0_18040_94099)">
<path d="M46.8377 49.8848H44.8125L46.0792 42.1406H48.1043L46.8377 49.8848Z" fill="#00579F"/>
<path d="M54.1765 42.3297C53.7771 42.173 53.1435 42 52.3601 42C50.3602 42 48.9519 43.0545 48.9432 44.5621C48.9266 45.6744 49.9515 46.2921 50.7181 46.663C51.5016 47.042 51.768 47.2894 51.768 47.6272C51.76 48.146 51.1348 48.3851 50.5518 48.3851C49.7432 48.3851 49.31 48.2618 48.6516 47.9732L48.385 47.8494L48.1016 49.5878C48.5765 49.8018 49.4516 49.9917 50.3602 50C52.4851 50 53.8686 48.9618 53.8849 47.3553C53.893 46.4737 53.3518 45.7982 52.185 45.2462C51.4767 44.8919 51.0429 44.6529 51.0429 44.2904C51.0512 43.9608 51.4098 43.6232 52.2094 43.6232C52.8678 43.6067 53.3515 43.7632 53.7179 43.9197L53.9011 44.002L54.1765 42.3297Z" fill="#00579F"/>
<path d="M56.8677 47.1413C57.0344 46.6964 57.6762 44.9746 57.6762 44.9746C57.6678 44.9911 57.8426 44.5215 57.9426 44.2332L58.0842 44.9004C58.0842 44.9004 58.4677 46.7541 58.551 47.1413C58.2345 47.1413 57.2677 47.1413 56.8677 47.1413ZM59.3675 42.1406H57.801C57.3179 42.1406 56.9509 42.2806 56.7425 42.7832L53.7344 49.8847H55.8593C55.8593 49.8847 56.2092 48.9289 56.2844 48.7231C56.5175 48.7231 58.5846 48.7231 58.8845 48.7231C58.9427 48.9949 59.1262 49.8847 59.1262 49.8847H61.0013L59.3675 42.1406Z" fill="#00579F"/>
<path d="M43.1172 42.1406L41.1339 47.4214L40.9171 46.3504C40.5505 45.1146 39.4005 43.7719 38.1172 43.1043L39.9338 49.8766H42.0754L45.2586 42.1406H43.1172Z" fill="#00579F"/>
<path d="M39.2916 42.1406H36.0333L36 42.2971C38.5417 42.9397 40.225 44.4888 40.9166 46.3508L40.2083 42.7916C40.0917 42.297 39.7333 42.1569 39.2916 42.1406Z" fill="#FAA61A"/>
</g>
</g>
<defs>
<filter id="filter0_d_18040_94099" x="0" y="0" width="92" height="92" filterUnits="userSpaceOnUse" color-interpolation-filters="sRGB">
<feFlood flood-opacity="0" result="BackgroundImageFix"/>
<feColorMatrix in="SourceAlpha" type="matrix" values="0 0 0 0 0 0 0 0 0 0 0 0 0 0 0 0 0 0 127 0" result="hardAlpha"/>
<feOffset dx="-3"/>
<feGaussianBlur stdDeviation="8"/>
<feComposite in2="hardAlpha" operator="out"/>
<feColorMatrix type="matrix" values="0 0 0 0 0 0 0 0 0 0 0 0 0 0 0 0 0 0 0.1 0"/>
<feBlend mode="normal" in2="BackgroundImageFix" result="effect1_dropShadow_18040_94099"/>
<feBlend mode="normal" in="SourceGraphic" in2="effect1_dropShadow_18040_94099" result="shape"/>
</filter>
<clipPath id="clip0_18040_94099">
<rect width="25" height="8" fill="white" transform="translate(36 42)"/>
</clipPath>
</defs>
</svg>
